<svg width="22" height="22" viewBox="0 0 22 22" fill="none" xmlns="http://www.w3.org/2000/svg">
<g id="Admin-Laptop">
<path id="Vector" d="M21.9633 19.2694L19.7999 14.9468V3.30001C19.7999 3.00827 19.684 2.72848 19.4777 2.52219C19.2715 2.3159 18.9917 2.20001 18.6999 2.20001H16.1333V2.93334H18.6999C18.7972 2.93334 18.8904 2.97197 18.9592 3.04074C19.028 3.1095 19.0666 3.20276 19.0666 3.30001V14.6666H2.93332V3.30001C2.93332 3.20276 2.97195 3.1095 3.04072 3.04074C3.10948 2.97197 3.20274 2.93334 3.29999 2.93334H5.86664V2.20001H3.29999C3.00825 2.20001 2.72846 2.3159 2.52217 2.52219C2.31588 2.72848 2.19999 3.00827 2.19999 3.30001V14.9468L0.0385 19.2694C0.0131278 19.3203 -5.29086e-05 19.3764 1.59613e-07 19.4333V21.2666C1.59613e-07 21.4611 0.0772615 21.6476 0.214788 21.7852C0.352314 21.9227 0.538839 21.9999 0.733331 21.9999H21.2666C21.4611 21.9999 21.6476 21.9227 21.7851 21.7852C21.9227 21.6476 21.9999 21.4611 21.9999 21.2666V19.4333C22.0005 19.3765 21.988 19.3204 21.9633 19.2694ZM19.2067 15.4L21.04 19.0666H0.95993L2.79326 15.4H19.2067ZM9.89996 19.7999H12.1V20.1666H9.89996V19.7999ZM0.733331 21.2666V19.7999H9.16663V20.1666C9.16663 20.3611 9.24389 20.5476 9.38142 20.6852C9.51895 20.8227 9.70547 20.8999 9.89996 20.8999H12.1C12.2944 20.8999 12.481 20.8227 12.6185 20.6852C12.756 20.5476 12.8333 20.3611 12.8333 20.1666V19.7999H21.2666V21.2666H0.733331Z" fill="#686868"/>
<path id="Vector_2" d="M3.66692 17.6H2.93359V18.3333H3.66692V17.6Z" fill="#686868"/>
<path id="Vector_3" d="M5.13323 17.6H4.3999V18.3333H5.13323V17.6Z" fill="#686868"/>
<path id="Vector_4" d="M16.1333 17.6H5.8667V18.3333H16.1333V17.6Z" fill="#686868"/>
<path id="Vector_5" d="M17.6 17.6H16.8667V18.3333H17.6V17.6Z" fill="#686868"/>
<path id="Vector_6" d="M19.0668 17.6H18.3335V18.3333H19.0668V17.6Z" fill="#686868"/>
<path id="Vector_7" d="M5.49993 16.1333H4.7666V16.8666H5.49993V16.1333Z" fill="#686868"/>
<path id="Vector_8" d="M4.03314 16.1333H3.2998V16.8666H4.03314V16.1333Z" fill="#686868"/>
<path id="Vector_9" d="M6.96673 16.1333H6.2334V16.8666H6.96673V16.1333Z" fill="#686868"/>
<path id="Vector_10" d="M8.43353 16.1333H7.7002V16.8666H8.43353V16.1333Z" fill="#686868"/>
<path id="Vector_11" d="M9.89983 16.1333H9.1665V16.8666H9.89983V16.1333Z" fill="#686868"/>
<path id="Vector_12" d="M11.3666 16.1333H10.6333V16.8666H11.3666V16.1333Z" fill="#686868"/>
<path id="Vector_13" d="M12.8334 16.1333H12.1001V16.8666H12.8334V16.1333Z" fill="#686868"/>
<path id="Vector_14" d="M14.3002 16.1333H13.5669V16.8666H14.3002V16.1333Z" fill="#686868"/>
<path id="Vector_15" d="M15.7665 16.1333H15.0332V16.8666H15.7665V16.1333Z" fill="#686868"/>
<path id="Vector_16" d="M17.2333 16.1333H16.5V16.8666H17.2333V16.1333Z" fill="#686868"/>
<path id="Vector_17" d="M18.7001 16.1333H17.9668V16.8666H18.7001V16.1333Z" fill="#686868"/>
<path id="Vector_18" d="M4.39983 13.2V4.40002H5.49983V3.66669H4.03317C3.93592 3.66669 3.84266 3.70532 3.7739 3.77408C3.70513 3.84284 3.6665 3.93611 3.6665 4.03335V13.5666C3.6665 13.6639 3.70513 13.7572 3.7739 13.8259C3.84266 13.8947 3.93592 13.9333 4.03317 13.9333H17.9664C18.0637 13.9333 18.157 13.8947 18.2257 13.8259C18.2945 13.7572 18.3331 13.6639 18.3331 13.5666V4.03335C18.3331 3.93611 18.2945 3.84284 18.2257 3.77408C18.157 3.70532 18.0637 3.66669 17.9664 3.66669H16.4998V4.40002H17.5998V13.2H4.39983Z" fill="#686868"/>
<path id="Vector_19" d="M8.80006 10.0911V10.6334C8.80064 11.1194 8.99398 11.5854 9.33767 11.9291C9.68136 12.2728 10.1473 12.4661 10.6334 12.4667H11.3667C11.8528 12.4661 12.3187 12.2728 12.6624 11.9291C13.0061 11.5854 13.1995 11.1194 13.2 10.6334V10.0911C13.9732 9.68883 14.6212 9.08236 15.0737 8.33757C15.5262 7.59278 15.7659 6.73819 15.7667 5.86671V3.66671C15.7667 3.19922 15.3197 2.84502 14.3998 2.58432C14.3933 2.58222 14.3867 2.58051 14.38 2.57918C14.1941 2.52785 13.9942 2.48165 13.7827 2.44022L14.1127 2.11022C14.1814 2.04146 14.22 1.94821 14.22 1.85099C14.22 1.75376 14.1814 1.66051 14.1127 1.59176L13.075 0.554092C13.0062 0.485353 12.913 0.446738 12.8158 0.446738C12.7185 0.446738 12.6253 0.485353 12.5565 0.554092L12.1 1.01059V0.366726C12.1 0.269481 12.0614 0.176218 11.9927 0.107455C11.9239 0.0386917 11.8306 6.10352e-05 11.7334 6.10352e-05H10.2667C10.1695 6.10352e-05 10.0762 0.0386917 10.0074 0.107455C9.93868 0.176218 9.90005 0.269481 9.90005 0.366726V1.01059L9.44429 0.554826C9.37553 0.486086 9.28228 0.447471 9.18505 0.447471C9.08783 0.447471 8.99458 0.486086 8.92582 0.554826L7.88816 1.59249C7.81942 1.66125 7.7808 1.75449 7.7808 1.85172C7.7808 1.94895 7.81942 2.04219 7.88816 2.11095L8.21816 2.44095C8.00659 2.48238 7.80676 2.52858 7.62086 2.57992C7.61426 2.57992 7.60766 2.58285 7.60069 2.58505C7.59373 2.58725 7.58273 2.59092 7.57319 2.59385C7.5666 2.59554 7.56011 2.59762 7.55376 2.60008C6.66716 2.86005 6.2334 3.20765 6.2334 3.66671V5.86671C6.23417 6.73819 6.47385 7.59278 6.92637 8.33757C7.3789 9.08236 8.02694 9.68883 8.80006 10.0911ZM12.4667 10.6334C12.4667 10.9251 12.3508 11.2049 12.1445 11.4112C11.9382 11.6175 11.6584 11.7333 11.3667 11.7333H10.6334C10.3416 11.7333 10.0619 11.6175 9.85557 11.4112C9.64928 11.2049 9.53339 10.9251 9.53339 10.6334V10.4002C10.4865 10.711 11.5136 10.711 12.4667 10.4002V10.6334ZM14.6667 3.45258C14.7963 3.50056 14.9154 3.57328 15.0172 3.66671C14.9154 3.76014 14.7963 3.83287 14.6667 3.88085V3.45258ZM9.18505 1.33252L9.79482 1.94339C9.84815 1.99705 9.91677 2.03291 9.99127 2.04603C10.0658 2.05916 10.1425 2.04892 10.211 2.01672C10.2684 1.98921 10.3273 1.96473 10.3873 1.94339C10.4596 1.91823 10.5221 1.87113 10.5662 1.80867C10.6103 1.74621 10.6338 1.67152 10.6334 1.59505V0.733392H11.3667V1.59505C11.3667 1.67115 11.3904 1.74534 11.4345 1.80736C11.4786 1.86938 11.5409 1.91615 11.6127 1.94119C11.6729 1.96259 11.7319 1.98707 11.7895 2.01452C11.8579 2.04664 11.9346 2.05683 12.009 2.04371C12.0834 2.03058 12.152 1.99477 12.2053 1.94119L12.815 1.33252L13.3342 1.85172L12.7234 2.46149C12.6697 2.51481 12.6339 2.58343 12.6207 2.65794C12.6076 2.73245 12.6178 2.80919 12.65 2.87765C12.6776 2.93549 12.702 2.99473 12.7234 3.05512C12.7487 3.12712 12.7959 3.18942 12.8583 3.23333C12.9208 3.27724 12.9954 3.30056 13.0717 3.30005H13.9334V4.03338H13.0717C12.9958 4.0334 12.9218 4.05697 12.8599 4.10084C12.7979 4.14471 12.7511 4.20672 12.7259 4.27831C12.7223 4.28931 12.7168 4.29921 12.7131 4.30984C12.5749 4.32451 12.4344 4.33734 12.2907 4.34834C12.4046 4.13907 12.465 3.90494 12.4667 3.66671C12.4667 3.27773 12.3122 2.90468 12.0371 2.62963C11.7621 2.35458 11.389 2.20005 11 2.20005C10.6111 2.20005 10.238 2.35458 9.96296 2.62963C9.68791 2.90468 9.53339 3.27773 9.53339 3.66671C9.53508 3.90494 9.59554 4.13907 9.70939 4.34834C9.56565 4.33734 9.42559 4.32451 9.28735 4.30984C9.28332 4.29958 9.27855 4.29004 9.27452 4.27941C9.24949 4.20756 9.20272 4.14527 9.1407 4.10119C9.07868 4.0571 9.00448 4.0334 8.92839 4.03338H8.06673V3.30005H8.92839C9.00448 3.30002 9.07868 3.27633 9.1407 3.23224C9.20272 3.18816 9.24949 3.12587 9.27452 3.05402C9.29586 2.99398 9.32034 2.93511 9.34785 2.87765C9.38006 2.80919 9.3903 2.73245 9.37717 2.65794C9.36404 2.58343 9.32818 2.51481 9.27452 2.46149L8.66586 1.85172L9.18505 1.33252ZM10.2667 3.66671C10.2663 3.5226 10.3083 3.38155 10.3876 3.26119C10.4669 3.14083 10.5798 3.04649 10.7124 2.98997C10.845 2.93344 10.9913 2.91723 11.133 2.94336C11.2747 2.96948 11.4056 3.03679 11.5093 3.13687C11.613 3.23696 11.6849 3.36537 11.7161 3.50609C11.7472 3.6468 11.7362 3.79357 11.6844 3.92806C11.6326 4.06255 11.5423 4.1788 11.4249 4.26228C11.3074 4.34577 11.1679 4.39279 11.0239 4.39748H10.9762C10.7863 4.3913 10.6062 4.31168 10.4739 4.17536C10.3416 4.03905 10.2673 3.8567 10.2667 3.66671ZM7.33339 3.45258V3.88085C7.20374 3.83272 7.08459 3.76001 6.9825 3.66671C7.08459 3.57342 7.20374 3.50071 7.33339 3.45258ZM6.96673 4.51958C7.1714 4.61272 7.38314 4.68947 7.59996 4.74911C7.60693 4.75131 7.61353 4.75278 7.62013 4.75424C8.05271 4.87005 8.49278 4.95581 8.93719 5.01091C9.62156 5.09492 10.3105 5.13582 11 5.13337C11.6899 5.13529 12.3793 5.0939 13.064 5.00944C13.508 4.9542 13.9477 4.86844 14.38 4.75278C14.3867 4.75145 14.3933 4.74974 14.3998 4.74764C14.4097 4.74508 14.4174 4.74178 14.4273 4.73921C14.4372 4.73664 14.4408 4.73554 14.4474 4.73261C14.6481 4.67582 14.8442 4.60412 15.0341 4.51811V5.86671C15.0341 6.93641 14.6092 7.9623 13.8528 8.71869C13.0964 9.47509 12.0705 9.90002 11.0008 9.90002C9.93108 9.90002 8.90519 9.47509 8.14879 8.71869C7.3924 7.9623 6.96746 6.93641 6.96746 5.86671L6.96673 4.51958Z" fill="#686868"/>
<path id="Vector_20" d="M11.0002 9.16667C11.342 9.16791 11.6793 9.08893 11.9849 8.93609C12.2906 8.78326 12.5562 8.56082 12.7602 8.28668L12.1736 7.84668C12.0369 8.02883 11.8598 8.17668 11.6561 8.2785C11.4525 8.38033 11.2279 8.43334 11.0002 8.43334C10.7725 8.43334 10.548 8.38033 10.3443 8.2785C10.1407 8.17668 9.96351 8.02883 9.8269 7.84668L9.24023 8.28668C9.4443 8.56082 9.70985 8.78326 10.0155 8.93609C10.3212 9.08893 10.6585 9.16791 11.0002 9.16667Z" fill="#686868"/>
<path id="Vector_21" d="M21.2665 10.2667H20.5332V11H21.2665V10.2667Z" fill="#686868"/>
<path id="Vector_22" d="M1.46673 10.2667H0.733398V11H1.46673V10.2667Z" fill="#686868"/>
<path id="Vector_23" d="M1.46673 8.06665H0.733398V8.79998H1.46673V8.06665Z" fill="#686868"/>
<path id="Vector_24" d="M1.46673 5.8667H0.733398V6.60003H1.46673V5.8667Z" fill="#686868"/>
<path id="Vector_25" d="M21.2665 8.06665H20.5332V8.79998H21.2665V8.06665Z" fill="#686868"/>
<path id="Vector_26" d="M21.2665 5.8667H20.5332V6.60003H21.2665V5.8667Z" fill="#686868"/>
<path id="Vector_27" d="M20.8998 1.10004H20.1665V1.83337H20.8998V1.10004Z" fill="#686868"/>
<path id="Vector_28" d="M1.83343 1.10004H1.1001V1.83337H1.83343V1.10004Z" fill="#686868"/>
<path id="Vector_29" d="M13.2001 5.8667H12.4668V6.60003H13.2001V5.8667Z" fill="#686868"/>
<path id="Vector_30" d="M9.53314 5.8667H8.7998V6.60003H9.53314V5.8667Z" fill="#686868"/>
</g>
</svg>
