<svg width="24" height="24" viewBox="0 0 24 24" fill="none" xmlns="http://www.w3.org/2000/svg">
<g id="Frame 16">
<g id="Vector">
<path d="M22.4885 5H8.53514C8.23383 5 8.00204 5.23064 8.00204 5.53047V9.56667H9.06824V6.06094H21.9554V13.8566H9.06824V12.7726C9.02189 12.7726 8.95235 12.7956 8.906 12.7956H8.00204V14.387C8.00204 14.6869 8.23383 14.9175 8.53514 14.9175H14.9787V16.4628L13.0781 18.354C12.8695 18.5616 12.8695 18.9076 13.0781 19.1151C13.2867 19.3227 13.6344 19.3227 13.843 19.1151L15.5118 17.4545L17.1807 19.1151C17.2965 19.2305 17.4124 19.2766 17.5515 19.2766C17.6906 19.2766 17.8296 19.2305 17.9224 19.1151C18.131 18.9076 18.131 18.5616 17.9224 18.354L16.0217 16.4628V14.9175H22.4653C22.7666 14.9175 22.9984 14.6869 22.9984 14.387V5.53047C23.0216 5.23064 22.7898 5 22.4885 5Z" fill="#686868"/>
<path d="M9.16097 11.6885L9.48547 10.8352C9.555 10.6507 9.41593 10.4661 9.2305 10.4661H3.13461C2.16112 10.4661 1.34988 11.2042 1.25717 12.1498L1.00221 14.4562C0.97903 14.6869 1.14128 14.8944 1.34988 14.9406C1.60484 14.9867 1.92934 15.0328 2.27701 15.0789L2.48562 18.723C2.5088 19.0229 2.76376 19.2766 3.06508 19.2766H4.84981C5.15112 19.2766 5.40609 19.0459 5.42926 18.723L5.73058 12.4497C5.73058 12.1268 5.98554 11.8961 6.31004 11.8961H8.88283C8.99872 11.8731 9.11461 11.8039 9.16097 11.6885Z" fill="#686868"/>
<path d="M3.96903 9.9357C5.03151 9.9357 5.89283 9.07863 5.89283 8.02139C5.89283 6.96415 5.03151 6.10708 3.96903 6.10708C2.90654 6.10708 2.04523 6.96415 2.04523 8.02139C2.04523 9.07863 2.90654 9.9357 3.96903 9.9357Z" fill="#686868"/>
<path d="M12.29 7.28334H11.8033C11.7106 7.28334 11.6179 7.35253 11.6179 7.46785V7.90607C10.9689 8.02139 10.5285 8.62105 10.598 9.26684C10.6676 9.91263 11.247 10.397 11.9192 10.397H12.2437C12.3596 10.397 12.4755 10.4431 12.545 10.5354C12.6145 10.6276 12.6609 10.7429 12.6609 10.8583C12.6377 11.0658 12.4523 11.2273 12.2205 11.2273H11.7801C11.6642 11.2273 11.5483 11.135 11.5252 11.0197C11.502 10.9505 11.4324 10.8813 11.3629 10.8813H10.853C10.8066 10.8813 10.7603 10.9044 10.7139 10.9505C10.6907 10.9966 10.6676 11.0428 10.6676 11.0889C10.7139 11.5963 11.1311 12.0115 11.641 12.0806V12.4958C11.641 12.5881 11.7106 12.6803 11.8265 12.6803H12.3132C12.4059 12.6803 12.4986 12.6111 12.4986 12.4958V12.0576C13.0549 11.9423 13.4721 11.481 13.5185 10.9505C13.5648 10.5815 13.449 10.2355 13.194 9.98182C12.9622 9.72812 12.6145 9.56667 12.2437 9.56667H11.8728C11.7569 9.56667 11.641 9.52054 11.5715 9.42829C11.502 9.33603 11.4556 9.22071 11.4556 9.10539C11.4788 8.89782 11.6642 8.73637 11.896 8.73637H12.3364C12.4523 8.73637 12.5682 8.82862 12.5914 8.94394C12.6145 9.01314 12.6841 9.08233 12.7536 9.08233H13.2635C13.3099 9.08233 13.3562 9.05926 13.4026 9.01314C13.4258 8.96701 13.449 8.92088 13.449 8.87475C13.4026 8.36735 12.9854 7.95219 12.4755 7.883V7.46785C12.4755 7.35253 12.3828 7.28334 12.29 7.28334Z" fill="#686868"/>
<path d="M16.6012 9.42828C16.3926 9.28989 16.1144 9.33602 15.9522 9.52053L14.1906 11.9192C14.0516 12.1268 14.0979 12.4035 14.2833 12.565C14.3529 12.6111 14.4456 12.6572 14.5615 12.6572C14.5847 12.6572 14.6078 12.6572 14.631 12.6572C14.7469 12.6342 14.8628 12.565 14.9323 12.4727L16.4158 10.4431L17.4124 11.1581C17.621 11.2965 17.8992 11.2503 18.0614 11.0658L19.6375 8.92087L19.962 9.15151C20.0547 9.2207 20.1706 9.2207 20.2633 9.17457C20.3561 9.12844 20.4256 9.03619 20.4256 8.92087L20.4024 7.53703C20.4024 7.44477 20.3561 7.37558 20.2865 7.30639C20.217 7.26026 20.1243 7.2372 20.0316 7.26026L18.6872 7.65235C18.5945 7.67541 18.5018 7.76767 18.4786 7.88299C18.4554 7.99831 18.5018 8.09057 18.5945 8.15976L18.919 8.3904L17.621 10.1663L16.6012 9.42828Z" fill="#686868"/>
</g>
</g>
</svg>
