<svg width="24" height="24" viewBox="0 0 24 24" fill="none" xmlns="http://www.w3.org/2000/svg">
<g id="Icons/Copy Trade icon V2">
<g id="Vector">
<path d="M7.5 5.76667H4.2C4.10275 5.76667 4.00949 5.8053 3.94073 5.87406C3.87196 5.94282 3.83333 6.03609 3.83333 6.13333C3.83333 6.23058 3.87196 6.32384 3.94073 6.39261C4.00949 6.46137 4.10275 6.5 4.2 6.5H7.5C7.59725 6.5 7.69051 6.46137 7.75927 6.39261C7.82804 6.32384 7.86667 6.23058 7.86667 6.13333C7.86667 6.03609 7.82804 5.94282 7.75927 5.87406C7.69051 5.8053 7.59725 5.76667 7.5 5.76667Z" fill="#686868"/>
<path d="M4.2 7.96667H4.56667C4.66391 7.96667 4.75718 7.92804 4.82594 7.85927C4.8947 7.79051 4.93333 7.69725 4.93333 7.6C4.93333 7.50275 4.8947 7.40949 4.82594 7.34073C4.75718 7.27196 4.66391 7.23333 4.56667 7.23333H4.2C4.10275 7.23333 4.00949 7.27196 3.94073 7.34073C3.87196 7.40949 3.83333 7.50275 3.83333 7.6C3.83333 7.69725 3.87196 7.79051 3.94073 7.85927C4.00949 7.92804 4.10275 7.96667 4.2 7.96667Z" fill="#686868"/>
<path d="M4.2 9.43333H4.56667C4.66391 9.43333 4.75718 9.3947 4.82594 9.32594C4.8947 9.25718 4.93333 9.16391 4.93333 9.06667C4.93333 8.96942 4.8947 8.87616 4.82594 8.80739C4.75718 8.73863 4.66391 8.7 4.56667 8.7H4.2C4.10275 8.7 4.00949 8.73863 3.94073 8.80739C3.87196 8.87616 3.83333 8.96942 3.83333 9.06667C3.83333 9.16391 3.87196 9.25718 3.94073 9.32594C4.00949 9.3947 4.10275 9.43333 4.2 9.43333Z" fill="#686868"/>
<path d="M4.2 10.9H4.56667C4.66391 10.9 4.75718 10.8614 4.82594 10.7926C4.8947 10.7238 4.93333 10.6306 4.93333 10.5333C4.93333 10.4361 4.8947 10.3428 4.82594 10.2741C4.75718 10.2053 4.66391 10.1667 4.56667 10.1667H4.2C4.10275 10.1667 4.00949 10.2053 3.94073 10.2741C3.87196 10.3428 3.83333 10.4361 3.83333 10.5333C3.83333 10.6306 3.87196 10.7238 3.94073 10.7926C4.00949 10.8614 4.10275 10.9 4.2 10.9Z" fill="#686868"/>
<path d="M4.2 12.3667H4.56667C4.66391 12.3667 4.75718 12.328 4.82594 12.2593C4.8947 12.1905 4.93333 12.0972 4.93333 12C4.93333 11.9028 4.8947 11.8095 4.82594 11.7407C4.75718 11.672 4.66391 11.6333 4.56667 11.6333H4.2C4.10275 11.6333 4.00949 11.672 3.94073 11.7407C3.87196 11.8095 3.83333 11.9028 3.83333 12C3.83333 12.0972 3.87196 12.1905 3.94073 12.2593C4.00949 12.328 4.10275 12.3667 4.2 12.3667Z" fill="#686868"/>
<path d="M17.0333 12C17.0333 11.9028 16.9947 11.8095 16.9259 11.7407C16.8572 11.672 16.7639 11.6333 16.6667 11.6333H6.4V7.6C6.4 7.50275 6.36137 7.40949 6.29261 7.34073C6.22384 7.27196 6.13058 7.23333 6.03333 7.23333C5.93609 7.23333 5.84282 7.27196 5.77406 7.34073C5.7053 7.40949 5.66667 7.50275 5.66667 7.6V12C5.66667 12.0972 5.7053 12.1905 5.77406 12.2593C5.84282 12.328 5.93609 12.3667 6.03333 12.3667H16.6667C16.7639 12.3667 16.8572 12.328 16.9259 12.2593C16.9947 12.1905 17.0333 12.0972 17.0333 12Z" fill="#686868"/>
<path d="M7.28 10.8267C7.31852 10.8556 7.36236 10.8766 7.409 10.8885C7.45565 10.9005 7.50419 10.9031 7.55185 10.8963C7.59952 10.8895 7.64538 10.8734 7.68681 10.8488C7.72825 10.8243 7.76444 10.7919 7.79333 10.7533L8.63969 9.62492L9.44072 10.4259C9.50066 10.4859 9.57951 10.5232 9.66387 10.5316C9.74823 10.5399 9.83288 10.5188 9.90341 10.4718L10.8 9.87402L11.6966 10.4717C11.742 10.502 11.7936 10.5218 11.8476 10.5296C11.9016 10.5374 11.9566 10.533 12.0088 10.5168C12.0609 10.5007 12.1087 10.473 12.1488 10.436C12.1889 10.399 12.2202 10.3535 12.2404 10.3028L12.8376 8.81L14.3305 9.40716C14.4054 9.43711 14.488 9.44153 14.5657 9.41974C14.6433 9.39796 14.7116 9.35119 14.76 9.28667L15.86 7.82C15.9183 7.7422 15.9434 7.64442 15.9296 7.54815C15.9159 7.45188 15.8645 7.36502 15.7867 7.30667C15.7089 7.24832 15.6111 7.22327 15.5148 7.23702C15.4185 7.25077 15.3317 7.3022 15.2733 7.38L14.342 8.62209L12.7695 7.99311C12.7248 7.97522 12.677 7.96632 12.6288 7.9669C12.5807 7.96749 12.5331 7.97755 12.4889 7.99652C12.4446 8.01549 12.4045 8.04299 12.3709 8.07746C12.3372 8.11192 12.3107 8.15268 12.2928 8.19739L11.7273 9.61112L11.0032 9.1285C10.9429 9.08834 10.8722 9.06691 10.7998 9.06691C10.7274 9.06691 10.6566 9.08834 10.5964 9.1285L9.74675 9.69486L8.85928 8.80739C8.82213 8.77024 8.77744 8.74151 8.72822 8.72314C8.679 8.70477 8.62641 8.69719 8.57401 8.70092C8.52161 8.70464 8.47062 8.71958 8.42449 8.74473C8.37837 8.76988 8.33819 8.80464 8.30667 8.84667L7.20667 10.3133C7.17778 10.3519 7.15676 10.3957 7.1448 10.4423C7.13285 10.489 7.13021 10.5375 7.13702 10.5852C7.14383 10.6329 7.15996 10.6787 7.18449 10.7201C7.20903 10.7616 7.24148 10.7978 7.28 10.8267Z" fill="#686868"/>
<path d="M14.4667 13.8333C14.4667 13.7361 14.428 13.6428 14.3593 13.5741C14.2905 13.5053 14.1972 13.4667 14.1 13.4667H4.2C4.10275 13.4667 4.00949 13.5053 3.94073 13.5741C3.87196 13.6428 3.83333 13.7361 3.83333 13.8333C3.83333 13.9306 3.87196 14.0238 3.94073 14.0926C4.00949 14.1614 4.10275 14.2 4.2 14.2H14.1C14.1972 14.2 14.2905 14.1614 14.3593 14.0926C14.428 14.0238 14.4667 13.9306 14.4667 13.8333Z" fill="#686868"/>
<path d="M4.56667 16.0333C4.76917 16.0333 4.93333 15.8692 4.93333 15.6667C4.93333 15.4642 4.76917 15.3 4.56667 15.3C4.36416 15.3 4.2 15.4642 4.2 15.6667C4.2 15.8692 4.36416 16.0333 4.56667 16.0333Z" fill="#686868"/>
<path d="M11.1667 15.3H6.03333C5.93609 15.3 5.84282 15.3386 5.77406 15.4074C5.7053 15.4762 5.66667 15.5694 5.66667 15.6667C5.66667 15.7639 5.7053 15.8572 5.77406 15.9259C5.84282 15.9947 5.93609 16.0333 6.03333 16.0333H11.1667C11.2639 16.0333 11.3572 15.9947 11.4259 15.9259C11.4947 15.8572 11.5333 15.7639 11.5333 15.6667C11.5333 15.5694 11.4947 15.4762 11.4259 15.4074C11.3572 15.3386 11.2639 15.3 11.1667 15.3Z" fill="#686868"/>
<path d="M4.56667 17.5C4.76917 17.5 4.93333 17.3358 4.93333 17.1333C4.93333 16.9308 4.76917 16.7667 4.56667 16.7667C4.36416 16.7667 4.2 16.9308 4.2 17.1333C4.2 17.3358 4.36416 17.5 4.56667 17.5Z" fill="#686868"/>
<path d="M11.1667 16.7667H6.03333C5.93609 16.7667 5.84282 16.8053 5.77406 16.8741C5.7053 16.9428 5.66667 17.0361 5.66667 17.1333C5.66667 17.2306 5.7053 17.3238 5.77406 17.3926C5.84282 17.4614 5.93609 17.5 6.03333 17.5H11.1667C11.2639 17.5 11.3572 17.4614 11.4259 17.3926C11.4947 17.3238 11.5333 17.2306 11.5333 17.1333C11.5333 17.0361 11.4947 16.9428 11.4259 16.8741C11.3572 16.8053 11.2639 16.7667 11.1667 16.7667Z" fill="#686868"/>
<path d="M8.6 6.5C8.8025 6.5 8.96667 6.33584 8.96667 6.13333C8.96667 5.93083 8.8025 5.76667 8.6 5.76667C8.3975 5.76667 8.23333 5.93083 8.23333 6.13333C8.23333 6.33584 8.3975 6.5 8.6 6.5Z" fill="#686868"/>
<path d="M20.4277 19.3909C20.7327 19.0857 20.9405 18.697 21.0246 18.2738C21.1088 17.8506 21.0656 17.412 20.9004 17.0134C20.7353 16.6148 20.4557 16.2741 20.097 16.0344C19.7382 15.7946 19.3164 15.6667 18.885 15.6667H17.4V14.2C17.4 13.9083 17.2841 13.6285 17.0778 13.4222C16.8715 13.2159 16.5917 13.1 16.3 13.1C16.0082 13.1 15.7284 13.2159 15.5222 13.4222C15.3159 13.6285 15.2 13.9083 15.2 14.2V16.9879C14.9738 16.799 14.6834 16.7047 14.3894 16.7246C14.0954 16.7445 13.8204 16.8769 13.6216 17.0945C13.4228 17.312 13.3156 17.5978 13.3223 17.8924C13.329 18.187 13.449 18.4677 13.6574 18.676L15.2 20.2185V20.8H14.8333C14.7361 20.8 14.6428 20.8386 14.574 20.9074C14.5053 20.9762 14.4666 21.0694 14.4666 21.1667V22.6333C14.4666 22.7306 14.5053 22.8238 14.574 22.8926C14.6428 22.9614 14.7361 23 14.8333 23H19.9666C20.0639 23 20.1572 22.9614 20.2259 22.8926C20.2947 22.8238 20.3333 22.7306 20.3333 22.6333V21.1667C20.3333 21.0694 20.2947 20.9762 20.2259 20.9074C20.1572 20.8386 20.0639 20.8 19.9666 20.8H19.6V20.2185L20.4277 19.3909ZM18.974 19.8074C18.94 19.8414 18.913 19.8819 18.8945 19.9263C18.8761 19.9708 18.8666 20.0185 18.8666 20.0667V20.8H15.9333V20.0667C15.9333 20.0185 15.9238 19.9708 15.9054 19.9263C15.887 19.8819 15.86 19.8414 15.8259 19.8074L14.1759 18.1574C14.1377 18.1192 14.1075 18.0739 14.0868 18.024C14.0661 17.9741 14.0555 17.9206 14.0555 17.8666C14.0555 17.8126 14.0661 17.7592 14.0868 17.7093C14.1075 17.6594 14.1377 17.6141 14.1759 17.5759C14.2141 17.5377 14.2594 17.5074 14.3093 17.4868C14.3592 17.4661 14.4127 17.4555 14.4667 17.4555C14.5207 17.4555 14.5741 17.4661 14.624 17.4868C14.6739 17.5074 14.7192 17.5377 14.7574 17.5759L15.3074 18.1259C15.3587 18.1772 15.424 18.2121 15.4951 18.2262C15.5662 18.2404 15.64 18.2331 15.7069 18.2053C15.7739 18.1776 15.8312 18.1306 15.8715 18.0703C15.9118 18.0101 15.9333 17.9392 15.9333 17.8667V14.2C15.9333 14.1028 15.9719 14.0095 16.0407 13.9407C16.1095 13.872 16.2027 13.8333 16.3 13.8333C16.3972 13.8333 16.4905 13.872 16.5592 13.9407C16.628 14.0095 16.6666 14.1028 16.6666 14.2V16.0333C16.6666 16.1306 16.7053 16.2238 16.774 16.2926C16.8428 16.3614 16.9361 16.4 17.0333 16.4H18.885C19.1714 16.4001 19.4513 16.485 19.6895 16.6442C19.9276 16.8033 20.1132 17.0295 20.2228 17.2941C20.3324 17.5587 20.3611 17.8498 20.3052 18.1307C20.2494 18.4116 20.1115 18.6697 19.909 18.8722L18.974 19.8074Z" fill="#686868"/>
<path d="M12.6333 18.6H3.1C3.00279 18.5999 2.90959 18.5612 2.84085 18.4925C2.77211 18.4237 2.73344 18.3305 2.73333 18.2333V4.66667H18.1333V5.03333C18.1333 5.13058 18.172 5.22384 18.2407 5.29261C18.3095 5.36137 18.4028 5.4 18.5 5.4C18.5972 5.4 18.6905 5.36137 18.7593 5.29261C18.828 5.22384 18.8667 5.13058 18.8667 5.03333V2.1C18.8663 1.80836 18.7503 1.52876 18.5441 1.32254C18.3379 1.11633 18.0583 1.00033 17.7667 1H3.1C2.80836 1.00033 2.52876 1.11633 2.32254 1.32254C2.11633 1.52876 2.00033 1.80836 2 2.1V18.2333C2.00033 18.525 2.11633 18.8046 2.32254 19.0108C2.52876 19.217 2.80836 19.333 3.1 19.3333H12.6333C12.7306 19.3333 12.8238 19.2947 12.8926 19.2259C12.9614 19.1572 13 19.0639 13 18.9667C13 18.8694 12.9614 18.7762 12.8926 18.7074C12.8238 18.6386 12.7306 18.6 12.6333 18.6ZM6.76667 2.46667C6.83919 2.46667 6.91008 2.48817 6.97038 2.52846C7.03067 2.56875 7.07767 2.62602 7.10542 2.69302C7.13317 2.76002 7.14044 2.83374 7.12629 2.90487C7.11214 2.97599 7.07722 3.04133 7.02594 3.09261C6.97466 3.14389 6.90933 3.17881 6.8382 3.19295C6.76707 3.2071 6.69335 3.19984 6.62635 3.17209C6.55935 3.14434 6.50208 3.09734 6.46179 3.03704C6.4215 2.97674 6.4 2.90585 6.4 2.83333C6.4 2.73609 6.43863 2.64282 6.50739 2.57406C6.57616 2.5053 6.66942 2.46667 6.76667 2.46667ZM5.3 2.46667C5.37252 2.46667 5.44341 2.48817 5.50371 2.52846C5.56401 2.56875 5.611 2.62602 5.63876 2.69302C5.66651 2.76002 5.67377 2.83374 5.65962 2.90487C5.64547 2.97599 5.61055 3.04133 5.55927 3.09261C5.50799 3.14389 5.44266 3.17881 5.37153 3.19295C5.30041 3.2071 5.22668 3.19984 5.15968 3.17209C5.09268 3.14434 5.03542 3.09734 4.99513 3.03704C4.95484 2.97674 4.93333 2.90585 4.93333 2.83333C4.93333 2.73609 4.97196 2.64282 5.04073 2.57406C5.10949 2.5053 5.20275 2.46667 5.3 2.46667ZM3.83333 2.46667C3.90585 2.46667 3.97674 2.48817 4.03704 2.52846C4.09734 2.56875 4.14434 2.62602 4.17209 2.69302C4.19984 2.76002 4.2071 2.83374 4.19295 2.90487C4.17881 2.97599 4.14388 3.04133 4.09261 3.09261C4.04133 3.14389 3.97599 3.17881 3.90487 3.19295C3.83374 3.2071 3.76002 3.19984 3.69302 3.17209C3.62602 3.14434 3.56875 3.09734 3.52846 3.03704C3.48817 2.97674 3.46667 2.90585 3.46667 2.83333C3.46667 2.73609 3.5053 2.64282 3.57406 2.57406C3.64282 2.5053 3.73609 2.46667 3.83333 2.46667Z" fill="#686868"/>
<path d="M18.5 6.13333C18.4028 6.13333 18.3095 6.17196 18.2407 6.24073C18.172 6.30949 18.1333 6.40275 18.1333 6.5V14.5667C18.1333 14.6639 18.172 14.7572 18.2407 14.8259C18.3095 14.8947 18.4028 14.9333 18.5 14.9333C18.5972 14.9333 18.6905 14.8947 18.7593 14.8259C18.828 14.7572 18.8667 14.6639 18.8667 14.5667V6.5C18.8667 6.40275 18.828 6.30949 18.7593 6.24073C18.6905 6.17196 18.5972 6.13333 18.5 6.13333Z" fill="#686868"/>
</g>
</g>
</svg>
