<svg width="17" height="16" viewBox="0 0 17 16" fill="none" xmlns="http://www.w3.org/2000/svg">
<g id="Icons/Dark Icon">
<g id="Vector">
<mask id="path-1-inside-1_110_1183" fill="white">
<path d="M8.80582 15.1653C8.69249 15.1653 8.57915 15.1653 8.46582 15.1587C4.73249 14.992 1.61249 11.9853 1.35249 8.31867C1.12582 5.17201 2.94582 2.23201 5.87915 0.998673C6.71249 0.652006 7.15249 0.918672 7.33915 1.11201C7.52582 1.29867 7.78582 1.73201 7.43915 2.52534C7.13275 3.22965 6.97828 3.99064 6.98582 4.75867C6.99915 7.71201 9.45249 10.2187 12.4458 10.3387C12.8792 10.3587 13.3058 10.3253 13.7192 10.252C14.5992 10.092 14.9658 10.4453 15.1058 10.672C15.2458 10.8987 15.4058 11.3853 14.8725 12.1053C13.4592 14.0387 11.2125 15.1653 8.80582 15.1653ZM2.34582 8.24534C2.57249 11.4187 5.27915 14.0187 8.50582 14.1587C10.6992 14.2653 12.7792 13.2653 14.0592 11.5187C14.1592 11.3787 14.2058 11.2787 14.2258 11.2253C14.1658 11.2187 14.0592 11.212 13.8925 11.2453C13.4058 11.332 12.8992 11.3653 12.3992 11.3453C8.87915 11.2053 5.99915 8.25201 5.97915 4.77201C5.97915 3.85201 6.15915 2.96534 6.52582 2.13201C6.59248 1.98534 6.60582 1.88534 6.61249 1.83201C6.55249 1.83201 6.44582 1.84534 6.27249 1.91867C3.73249 2.98534 2.15915 5.53201 2.34582 8.24534Z"/>
</mask>
<path d="M8.80582 15.1653C8.69249 15.1653 8.57915 15.1653 8.46582 15.1587C4.73249 14.992 1.61249 11.9853 1.35249 8.31867C1.12582 5.17201 2.94582 2.23201 5.87915 0.998673C6.71249 0.652006 7.15249 0.918672 7.33915 1.11201C7.52582 1.29867 7.78582 1.73201 7.43915 2.52534C7.13275 3.22965 6.97828 3.99064 6.98582 4.75867C6.99915 7.71201 9.45249 10.2187 12.4458 10.3387C12.8792 10.3587 13.3058 10.3253 13.7192 10.252C14.5992 10.092 14.9658 10.4453 15.1058 10.672C15.2458 10.8987 15.4058 11.3853 14.8725 12.1053C13.4592 14.0387 11.2125 15.1653 8.80582 15.1653ZM2.34582 8.24534C2.57249 11.4187 5.27915 14.0187 8.50582 14.1587C10.6992 14.2653 12.7792 13.2653 14.0592 11.5187C14.1592 11.3787 14.2058 11.2787 14.2258 11.2253C14.1658 11.2187 14.0592 11.212 13.8925 11.2453C13.4058 11.332 12.8992 11.3653 12.3992 11.3453C8.87915 11.2053 5.99915 8.25201 5.97915 4.77201C5.97915 3.85201 6.15915 2.96534 6.52582 2.13201C6.59248 1.98534 6.60582 1.88534 6.61249 1.83201C6.55249 1.83201 6.44582 1.84534 6.27249 1.91867C3.73249 2.98534 2.15915 5.53201 2.34582 8.24534Z" fill="#636363"/>
<path d="M8.46582 15.1587L8.54412 13.8276L8.5347 13.8271L8.52528 13.8267L8.46582 15.1587ZM1.35249 8.31867L2.68248 8.22436L2.68237 8.22287L1.35249 8.31867ZM5.87915 0.998673L5.36703 -0.232397L5.36237 -0.230438L5.87915 0.998673ZM7.33915 1.11201L6.37995 2.03813L6.38807 2.04655L6.39634 2.05481L7.33915 1.11201ZM7.43915 2.52534L6.21737 1.99145L6.21651 1.99344L7.43915 2.52534ZM6.98582 4.75867L8.31916 4.75265L8.31909 4.74559L6.98582 4.75867ZM12.4458 10.3387L12.5073 9.00673L12.4992 9.00641L12.4458 10.3387ZM13.7192 10.252L13.9521 11.5648L13.9577 11.5638L13.7192 10.252ZM14.8725 12.1053L13.8011 11.3117L13.7961 11.3185L14.8725 12.1053ZM2.34582 8.24534L1.01562 8.33685L1.01587 8.34033L2.34582 8.24534ZM8.50582 14.1587L8.57059 12.8269L8.56362 12.8266L8.50582 14.1587ZM14.0592 11.5187L15.1346 12.3068L15.1394 12.3003L15.1441 12.2937L14.0592 11.5187ZM14.2258 11.2253L15.4743 11.6935L16.0758 10.0894L14.3731 9.90016L14.2258 11.2253ZM13.8925 11.2453L14.1263 12.558L14.1401 12.5555L14.154 12.5528L13.8925 11.2453ZM12.3992 11.3453L12.4524 10.0131L12.4521 10.0131L12.3992 11.3453ZM5.97915 4.77201H4.6458L4.64584 4.77967L5.97915 4.77201ZM6.52582 2.13201L5.312 1.58027L5.30865 1.58762L5.3054 1.59502L6.52582 2.13201ZM6.61249 1.83201L7.93552 1.99739L8.12286 0.498672H6.61249V1.83201ZM6.27249 1.91867L6.78874 3.14801L6.79201 3.14663L6.27249 1.91867ZM8.80582 13.832C8.68598 13.832 8.61183 13.8316 8.54412 13.8276L8.38752 16.4897C8.54648 16.4991 8.69899 16.4987 8.80582 16.4987V13.832ZM8.52528 13.8267C5.45354 13.6895 2.89356 11.2012 2.68248 8.22436L0.0224911 8.41298C0.33141 12.7695 4.01143 16.2945 8.40635 16.4907L8.52528 13.8267ZM2.68237 8.22287C2.49734 5.6542 3.98253 3.24251 6.39594 2.22778L5.36237 -0.230438C1.90911 1.2215 -0.245704 4.68981 0.0225976 8.41447L2.68237 8.22287ZM6.39127 2.22973C6.5056 2.18217 6.57433 2.16903 6.60249 2.16541C6.62883 2.16202 6.62174 2.16659 6.59016 2.16028C6.5585 2.15395 6.51978 2.14017 6.47977 2.11693C6.44143 2.09466 6.40833 2.06753 6.37995 2.03813L8.29835 0.18588C8.05175 -0.0695309 7.66217 -0.344795 7.11314 -0.454602C6.56499 -0.564231 5.97546 -0.485496 5.36703 -0.232388L6.39127 2.22973ZM6.39634 2.05481C6.3705 2.02897 6.34533 1.99786 6.32406 1.96056C6.30184 1.92159 6.28739 1.88187 6.28046 1.8463C6.27348 1.81049 6.27758 1.79669 6.27527 1.81335C6.27271 1.83188 6.26182 1.88975 6.21737 1.99145L8.66093 3.05923C8.92105 2.46394 9.0041 1.88108 8.89785 1.33605C8.79213 0.793736 8.52259 0.409827 8.28196 0.169197L6.39634 2.05481ZM6.21651 1.99344C5.83534 2.86962 5.64317 3.81631 5.65255 4.77176L8.31909 4.74559C8.31339 4.16497 8.43017 3.58968 8.6618 3.05724L6.21651 1.99344ZM5.6525 4.76469C5.66913 8.44831 8.70351 11.5231 12.3924 11.6709L12.4992 9.00641C10.2015 8.91429 8.32917 6.9757 8.31914 4.75265L5.6525 4.76469ZM12.3843 11.6706C12.9262 11.6956 13.452 11.6536 13.9521 11.5648L13.4862 8.93917C13.1597 8.99711 12.8321 9.02175 12.5073 9.00676L12.3843 11.6706ZM13.9577 11.5638C14.0771 11.5421 14.1444 11.5441 14.17 11.5464C14.1937 11.5485 14.1834 11.5508 14.1519 11.5369C14.1204 11.523 14.0845 11.5003 14.0502 11.4687C14.0173 11.4384 13.9916 11.4053 13.9714 11.3727L16.2402 9.97135C16.0574 9.67529 15.7398 9.32277 15.2281 9.09706C14.7171 8.87168 14.126 8.82283 13.4806 8.94018L13.9577 11.5638ZM13.9714 11.3727C13.9541 11.3447 13.9373 11.3103 13.9253 11.2699C13.9127 11.2276 13.908 11.1869 13.9093 11.1528C13.9106 11.1186 13.9172 11.1099 13.9091 11.1312C13.9002 11.1542 13.8729 11.2148 13.8011 11.3117L15.9439 12.899C16.3366 12.3688 16.5526 11.8143 16.574 11.2546C16.5954 10.6952 16.4175 10.2583 16.2402 9.97135L13.9714 11.3727ZM13.7961 11.3185C12.6376 12.9032 10.7935 13.832 8.80582 13.832V16.4987C11.6314 16.4987 14.2807 15.1742 15.9489 12.8922L13.7961 11.3185ZM1.01587 8.34033C1.29187 12.2043 4.55981 15.322 8.44802 15.4908L8.56362 12.8266C5.9985 12.7153 3.8531 10.633 3.67576 8.15034L1.01587 8.34033ZM8.44105 15.4904C11.0818 15.6189 13.59 14.4145 15.1346 12.3068L12.9837 10.7305C11.9683 12.1161 10.3165 12.9118 8.57059 12.8269L8.44105 15.4904ZM15.1441 12.2937C15.3038 12.0701 15.4088 11.868 15.4743 11.6935L12.9774 10.7572C12.984 10.7394 12.9897 10.7263 12.9936 10.7178C12.9976 10.7091 13.0001 10.7045 13.0004 10.7038C13.0012 10.7024 12.9939 10.716 12.9742 10.7437L15.1441 12.2937ZM14.3731 9.90016C14.2011 9.88105 13.9543 9.87324 13.631 9.9379L14.154 12.5528C14.1659 12.5504 14.1602 12.5524 14.1395 12.5531C14.1296 12.5534 14.1182 12.5533 14.1059 12.5527C14.0935 12.552 14.0835 12.5511 14.0786 12.5505L14.3731 9.90016ZM13.6587 9.93266C13.2695 10.002 12.8591 10.0293 12.4524 10.0131L12.3459 12.6776C12.9392 12.7013 13.5422 12.662 14.1263 12.558L13.6587 9.93266ZM12.4521 10.0131C9.63215 9.9009 7.3283 7.51938 7.31246 4.76434L4.64584 4.77967C4.67001 8.98463 8.12616 12.5098 12.3462 12.6776L12.4521 10.0131ZM7.31249 4.77201C7.31249 4.02947 7.45697 3.32643 7.74624 2.66899L5.3054 1.59502C4.86134 2.60425 4.64582 3.67454 4.64582 4.77201H7.31249ZM7.73964 2.68374C7.88243 2.3696 7.91965 2.12439 7.93552 1.99739L5.28945 1.66663C5.2883 1.67581 5.28904 1.6691 5.2907 1.65924C5.2925 1.64859 5.29495 1.63636 5.29813 1.62362C5.30482 1.59688 5.31121 1.58199 5.312 1.58027L7.73964 2.68374ZM6.61249 0.498672C6.3393 0.498672 6.05538 0.562772 5.75297 0.690716L6.79201 3.14663C6.81547 3.1367 6.80897 3.14164 6.77628 3.14896C6.74126 3.1568 6.68524 3.16534 6.61249 3.16534V0.498672ZM5.75623 0.68934C2.6956 1.97465 0.789422 5.04877 1.01563 8.33685L3.67601 8.15383C3.52888 6.01524 4.76937 3.99603 6.78874 3.14801L5.75623 0.68934Z" fill="#636363" mask="url(#path-1-inside-1_110_1183)"/>
</g>
</g>
</svg>
