<svg width="24" height="24" viewBox="0 0 24 24" fill="none" xmlns="http://www.w3.org/2000/svg">
<g id="Icons/Dashboard icon V2">
<g id="Vector">
<path d="M22.3403 3H1.63437C1.27912 3 1 3.27966 1 3.63559V20.3644C1 20.7203 1.27912 21 1.63437 21H22.3656C22.7209 21 23 20.7203 23 20.3644V3.63559C22.9746 3.27966 22.6955 3 22.3403 3ZM19.752 4.16949C20.2595 3.91525 20.8939 4.14407 21.1476 4.65254C21.4014 5.16102 21.173 5.79661 20.6655 6.05085C20.158 6.30508 19.5236 6.07627 19.2699 5.5678C19.0415 5.0339 19.2445 4.39831 19.752 4.16949ZM16.3518 4.16949C16.8593 3.91525 17.4937 4.14407 17.7474 4.65254C18.0012 5.16102 17.7728 5.79661 17.2653 6.05085C16.7578 6.30508 16.1234 6.07627 15.8697 5.5678C15.6159 5.0339 15.8189 4.39831 16.3518 4.16949ZM12.9262 4.16949C13.4337 3.91525 14.0681 4.14407 14.3218 4.65254C14.5755 5.16102 14.3472 5.79661 13.8397 6.05085C13.3322 6.30508 12.6978 6.07627 12.4441 5.5678C12.1903 5.0339 12.4187 4.39831 12.9262 4.16949ZM2.26874 19.7288V7.44915H21.7313V19.7288H2.26874Z" fill="#686868"/>
<path d="M20.615 9.25364H20.5388L19.3208 9.30449L16.352 9.40618L16.4027 10.7028L18.179 10.6265L16.0982 12.813L12.9518 9.635L11.1501 14.4401L6.58267 9.86381L3.36006 17.8214L4.55268 18.3045L7.03941 12.1774L11.6576 16.8045L13.4593 11.974L16.1236 14.6435L19.1686 11.4909L19.0417 13.4486L20.3358 13.5248L20.5388 10.5503L20.615 9.32991V9.25364Z" fill="#686868"/>
</g>
</g>
</svg>
