<svg width="18" height="18" viewBox="0 0 18 18" fill="none" xmlns="http://www.w3.org/2000/svg">
<g id="Group">
<path id="Vector" fill-rule="evenodd" clip-rule="evenodd" d="M9.86707 11.7709C9.71917 11.9176 9.51862 12 9.3095 12C9.10038 12 8.89982 11.9176 8.75192 11.7709L4.29057 7.34511C4.21524 7.27294 4.15516 7.18661 4.11383 7.09116C4.0725 6.9957 4.05074 6.89304 4.04983 6.78916C4.04892 6.68528 4.06888 6.58226 4.10853 6.48611C4.14819 6.38996 4.20675 6.30261 4.28079 6.22915C4.35484 6.15569 4.44289 6.0976 4.53982 6.05826C4.63674 6.01892 4.74059 5.99913 4.8453 6.00003C4.95002 6.00093 5.0535 6.02251 5.14972 6.06352C5.24594 6.10452 5.33296 6.16412 5.40571 6.23885L9.3095 10.1115L13.2133 6.23885C13.362 6.09633 13.5612 6.01747 13.768 6.01926C13.9748 6.02104 14.1726 6.10332 14.3188 6.24838C14.465 6.39343 14.548 6.58966 14.5498 6.79479C14.5516 6.99993 14.4721 7.19755 14.3284 7.34511L9.86707 11.7709Z" fill="#686868"/>
</g>
</svg>
