<svg width="24" height="24" viewBox="0 0 24 24" fill="none" xmlns="http://www.w3.org/2000/svg">
<g id="Icons/Exchange icon">
<g id="Vector">
<path d="M13.7337 7.36684C13.7337 6.1076 13.3603 4.87664 12.6607 3.82962C11.9611 2.78259 10.9667 1.96654 9.80333 1.48465C8.63994 1.00276 7.35978 0.876674 6.12473 1.12234C4.88969 1.36801 3.75523 1.97439 2.86481 2.86481C1.97439 3.75523 1.36801 4.88969 1.12234 6.12473C0.876674 7.35978 1.00276 8.63994 1.48465 9.80333C1.96654 10.9667 2.78259 11.9611 3.82962 12.6607C4.87664 13.3603 6.1076 13.7337 7.36684 13.7337C9.05479 13.7316 10.673 13.0601 11.8666 11.8666C13.0601 10.673 13.7316 9.05479 13.7337 7.36684ZM7.36684 3.53783C8.12415 3.53783 8.86445 3.7624 9.49413 4.18314C10.1238 4.60387 10.6146 5.20188 10.9044 5.90154C11.1942 6.6012 11.27 7.37109 11.1223 8.11384C10.9745 8.8566 10.6099 9.53886 10.0744 10.0744C9.53886 10.6099 8.8566 10.9745 8.11384 11.1223C7.37109 11.27 6.6012 11.1942 5.90154 10.9044C5.20188 10.6146 4.60387 10.1238 4.18314 9.49413C3.7624 8.86445 3.53783 8.12415 3.53783 7.36684C3.53922 6.35175 3.94308 5.37863 4.66086 4.66086C5.37863 3.94308 6.35175 3.53922 7.36684 3.53783ZM7.89065 12.6599V12.212C8.99539 12.0915 10.0259 11.5975 10.8117 10.8117C11.5975 10.0259 12.0915 8.99539 12.212 7.89065H12.6599C12.5358 9.11327 11.9935 10.2556 11.1246 11.1246C10.2556 11.9935 9.11327 12.5358 7.89065 12.6599ZM12.6599 6.84304H12.212C12.0916 5.738 11.5977 4.70714 10.8119 3.9209C10.0262 3.13465 8.99561 2.64011 7.89065 2.51903V2.0738C9.11363 2.19688 10.2565 2.7389 11.1256 3.60805C11.9948 4.4772 12.5368 5.62005 12.6599 6.84304ZM6.84304 2.0738V2.51903C5.73778 2.64001 4.70687 3.13446 3.92066 3.92066C3.13446 4.70687 2.64001 5.73778 2.51903 6.84304H2.0738C2.19592 5.61969 2.73763 4.4763 3.60697 3.60697C4.4763 2.73763 5.61969 2.19592 6.84304 2.0738ZM2.0738 7.89065H2.51903C2.64011 8.99561 3.13465 10.0262 3.9209 10.8119C4.70714 11.5977 5.738 12.0916 6.84304 12.212V12.6599C5.62005 12.5368 4.4772 11.9948 3.60805 11.1256C2.7389 10.2565 2.19688 9.11363 2.0738 7.89065Z" fill="#686868"/>
<path d="M6.96085 7.89089H7.77274C7.81306 7.88705 7.85374 7.89168 7.89216 7.90447C7.93059 7.91727 7.96592 7.93796 7.99588 7.9652C8.02585 7.99245 8.04979 8.02566 8.06617 8.0627C8.08255 8.09974 8.09101 8.13979 8.09101 8.18029C8.09101 8.22079 8.08255 8.26085 8.06617 8.29788C8.04979 8.33492 8.02585 8.36813 7.99588 8.39538C7.96592 8.42263 7.93059 8.44331 7.89216 8.45611C7.85374 8.46891 7.81306 8.47353 7.77274 8.46969H5.74038V9.5173H7.04989V10.0097H8.0975V9.48587C8.40323 9.39841 8.66772 9.20473 8.84342 8.93968C9.01911 8.67463 9.09448 8.35559 9.05597 8.03994C9.01746 7.72428 8.8676 7.43272 8.63333 7.21769C8.39907 7.00265 8.09577 6.87825 7.77798 6.86685H6.96608C6.92577 6.87069 6.88509 6.86606 6.84666 6.85327C6.80824 6.84047 6.77291 6.81979 6.74294 6.79254C6.71298 6.76529 6.68904 6.73208 6.67266 6.69504C6.65627 6.658 6.64781 6.61795 6.64781 6.57745C6.64781 6.53695 6.65627 6.4969 6.67266 6.45986C6.68904 6.42282 6.71298 6.38961 6.74294 6.36236C6.77291 6.33512 6.80824 6.31443 6.84666 6.30163C6.88509 6.28884 6.92577 6.28421 6.96608 6.28805H8.99844V5.24044H8.09226V4.72187H7.04465V5.21687H6.96085C6.78029 5.20888 6.59998 5.23754 6.4308 5.30112C6.26163 5.36471 6.10708 5.4619 5.97648 5.58684C5.84589 5.71178 5.74196 5.86188 5.67095 6.02808C5.59994 6.19428 5.56334 6.37315 5.56334 6.55388C5.56334 6.73461 5.59994 6.91347 5.67095 7.07968C5.74196 7.24588 5.84589 7.39597 5.97648 7.52091C6.10708 7.64585 6.26163 7.74305 6.4308 7.80663C6.59998 7.87022 6.78029 7.89888 6.96085 7.89089Z" fill="#686868"/>
<path d="M16.6332 10.2658C15.3739 10.2658 14.143 10.6392 13.0959 11.3388C12.0489 12.0384 11.2329 13.0328 10.751 14.1962C10.2691 15.3596 10.143 16.6397 10.3887 17.8748C10.6343 19.1098 11.2407 20.2443 12.1311 21.1347C13.0215 22.0251 14.156 22.6315 15.3911 22.8771C16.6261 23.1228 17.9063 22.9967 19.0696 22.5148C20.233 22.0329 21.2274 21.2169 21.927 20.1699C22.6266 19.1229 23 17.8919 23 16.6326C22.9979 14.9447 22.3265 13.3265 21.1329 12.1329C19.9393 10.9393 18.3211 10.2679 16.6332 10.2658ZM21.9262 16.1088H21.481C21.3599 15.0039 20.8654 13.9733 20.0791 13.1876C19.2929 12.4018 18.262 11.9079 17.157 11.7875V11.3396C18.38 11.4627 19.5228 12.0047 20.392 12.8739C21.2611 13.743 21.8031 14.8859 21.9262 16.1088ZM16.6332 20.4617C15.8759 20.4617 15.1356 20.2371 14.5059 19.8164C13.8762 19.3956 13.3854 18.7976 13.0956 18.0979C12.8058 17.3983 12.73 16.6284 12.8777 15.8856C13.0255 15.1429 13.3901 14.4606 13.9256 13.9251C14.4611 13.3896 15.1434 13.025 15.8862 12.8772C16.6289 12.7295 17.3988 12.8053 18.0985 13.0951C18.7981 13.3849 19.3961 13.8757 19.8169 14.5054C20.2376 15.135 20.4622 15.8753 20.4622 16.6326C20.4608 17.6477 20.0569 18.6209 19.3391 19.3386C18.6214 20.0564 17.6483 20.4603 16.6332 20.4617ZM16.1094 11.3396V11.7875C15.0046 11.908 13.9741 12.402 13.1883 13.1878C12.4025 13.9736 11.9085 15.0041 11.788 16.1088H11.3401C11.4642 14.8862 12.0065 13.7439 12.8754 12.8749C13.7444 12.006 14.8867 11.4636 16.1094 11.3396ZM11.3401 17.1565H11.788C11.9084 18.2615 12.4023 19.2923 13.1881 20.0786C13.9738 20.8648 15.0044 21.3594 16.1094 21.4805V21.9257C14.8864 21.8026 13.7435 21.2606 12.8744 20.3914C12.0052 19.5223 11.4632 18.3794 11.3401 17.1565ZM17.157 21.9257V21.4805C18.2622 21.3595 19.2931 20.865 20.0793 20.0788C20.8655 19.2926 21.36 18.2617 21.481 17.1565H21.9262C21.8041 18.3798 21.2624 19.5232 20.393 20.3925C19.5237 21.2619 18.3803 21.8036 17.157 21.9257Z" fill="#686868"/>
<path d="M17.2665 15.302L18.1649 15.4854L18.3718 14.4587L17.4761 14.2754C17.22 14.2239 16.9553 14.2348 16.7044 14.307C16.4534 14.3793 16.2235 14.5108 16.034 14.6906C15.8445 14.8703 15.701 15.0929 15.6156 15.3398C15.5302 15.5866 15.5053 15.8503 15.5432 16.1087V16.2187H14.9985V17.2663H15.5223L15.1425 19.0237H18.2591V17.9761H16.452L16.6039 17.2742H17.7615V16.2266H16.6065L16.5856 15.9987V15.9647C16.5701 15.8721 16.5774 15.7771 16.6068 15.6879C16.6362 15.5988 16.6869 15.5181 16.7544 15.4529C16.8219 15.3877 16.9043 15.3399 16.9945 15.3136C17.0846 15.2873 17.1798 15.2833 17.2718 15.302H17.2665Z" fill="#686868"/>
<path d="M6.17232 16.714L6.91612 17.4578L7.6573 16.714L5.6328 14.6895L3.56378 16.7559L4.30496 17.4997L5.12471 16.68C5.15114 17.4086 5.45895 18.0986 5.98348 18.6051C6.50801 19.1116 7.20841 19.395 7.93754 19.3959H9.42514V18.3483H7.93754C7.49174 18.3477 7.06252 18.1791 6.73539 17.8763C6.40826 17.5734 6.20722 17.1584 6.17232 16.714Z" fill="#686868"/>
<path d="M17.9898 7.61565L17.2382 6.87184L16.5048 7.61303L18.532 9.64277L20.5984 7.57636L19.8572 6.82994L19.0401 7.64969C19.0136 6.92011 18.7056 6.22912 18.1807 5.72175C17.6558 5.21438 16.9547 4.93008 16.2246 4.92853H14.7396V5.97614H16.2246C16.6713 5.97685 17.1012 6.1461 17.4284 6.45005C17.7557 6.75401 17.9562 7.17027 17.9898 7.61565Z" fill="#686868"/>
</g>
</g>
</svg>
