<svg width="24" height="24" viewBox="0 0 24 24" fill="none" xmlns="http://www.w3.org/2000/svg">
<g id="Icons/Home icon V2">
<path id="Vector" d="M20.8618 11.9625V21.7464C20.8618 22.4277 20.2936 23 19.6171 23H4.38301C3.70654 23 3.13831 22.4277 3.13831 21.7464V11.9625C2.40772 12.2623 1.59596 11.8263 1.4336 11.0632L1.02772 9.18272C0.919485 8.69216 1.13596 8.17436 1.54184 7.90183L11.283 1.22484C11.716 0.925054 12.2571 0.925054 12.6901 1.22484L22.4312 7.90183C22.8642 8.17436 23.0807 8.69216 22.9724 9.18272L22.5665 11.0632C22.4042 11.8263 21.5924 12.2623 20.8618 11.9625ZM19.7254 21.7464V11.1994L12.0677 5.96686C12.0136 5.93961 11.9595 5.93961 11.9324 5.96686L4.27478 11.1994V21.7464C4.27478 21.8009 4.3289 21.8554 4.38301 21.8554H8.27948V14.279C8.27948 13.5977 8.82066 13.0254 9.52419 13.0254H14.4759C15.1524 13.0254 15.7207 13.5977 15.7207 14.279V21.8554H19.6171C19.6712 21.8554 19.7254 21.8009 19.7254 21.7464ZM9.41595 21.8554H14.5842V14.279C14.5842 14.2245 14.5301 14.17 14.4759 14.17H9.52419C9.47007 14.17 9.41595 14.2245 9.41595 14.279V21.8554ZM11.9324 2.17869L2.19125 8.85568C2.13713 8.88294 2.13713 8.91019 2.13713 8.96469L2.54301 10.8179C2.57007 10.8997 2.62419 10.9269 2.70537 10.8724L11.283 5.01301C11.6889 4.74048 12.3112 4.74048 12.6901 5.01301L21.2948 10.8724C21.3489 10.9269 21.4301 10.8997 21.4571 10.8179L21.8359 8.96469C21.8359 8.93744 21.8359 8.88294 21.8089 8.85568L12.0677 2.17869C12.0136 2.15144 11.9595 2.15144 11.9324 2.17869Z" fill="#686868"/>
</g>
</svg>
