<svg width="11" height="11" viewBox="0 0 11 11" fill="none" xmlns="http://www.w3.org/2000/svg">
<g id="&#240;&#159;&#166;&#134; icon &#34;dollar circle&#34;">
<g id="Group">
<path id="Vector" d="M6.3208 7.03958H6.64713C6.97345 7.03958 7.24455 6.74839 7.24455 6.39697C7.24455 5.96019 7.08892 5.87485 6.83288 5.78448L6.32582 5.60876V7.03958H6.3208Z" fill="white"/>
<path id="Vector_2" d="M5.92921 8.42588e-06C3.15794 0.0100492 0.913821 2.26421 0.923862 5.03549C0.933902 7.80675 3.18806 10.0509 5.95933 10.0408C8.73059 10.0308 10.9747 7.77662 10.9647 5.00537C10.9546 2.23408 8.70047 -0.00501197 5.92921 8.42588e-06ZM7.07888 5.07063C7.47047 5.20618 7.99761 5.49737 7.99761 6.39602C7.99761 7.16916 7.39015 7.79169 6.64713 7.79169H6.3208V8.08287C6.3208 8.28871 6.15011 8.4594 5.94427 8.4594C5.73844 8.4594 5.56774 8.28871 5.56774 8.08287V7.79169H5.38701C4.56365 7.79169 3.89594 7.09887 3.89594 6.2454C3.89594 6.03957 4.06663 5.86888 4.27246 5.86888C4.4783 5.86888 4.64899 6.03957 4.64899 6.2454C4.64899 6.68218 4.98036 7.03863 5.38701 7.03863H5.56774V5.34173L4.80965 5.07063C4.41806 4.93508 3.89091 4.6439 3.89091 3.74522C3.89091 2.97208 4.49838 2.34955 5.24142 2.34955H5.56774V2.05837C5.56774 1.85253 5.73844 1.68184 5.94427 1.68184C6.15011 1.68184 6.3208 1.85253 6.3208 2.05837V2.34955H6.50154C7.32488 2.34955 7.99259 3.04237 7.99259 3.89583C7.99259 4.1017 7.8219 4.27239 7.61606 4.27239C7.41023 4.27239 7.23953 4.1017 7.23953 3.89583C7.23953 3.45906 6.90819 3.10261 6.50154 3.10261H6.3208V4.79953L7.07888 5.07063Z" fill="white"/>
<path id="Vector_3" d="M4.6499 3.75005C4.6499 4.18681 4.80553 4.27216 5.06159 4.36253L5.56864 4.53824V3.10242H5.24232C4.91598 3.10242 4.6499 3.3936 4.6499 3.75005Z" fill="white"/>
</g>
</g>
</svg>
