<svg width="35" height="35" viewBox="0 0 35 35" fill="none" xmlns="http://www.w3.org/2000/svg">
<g id="Lock" clip-path="url(#clip0_0_1058)">
<path id="Vector" d="M26.2499 11.6667H24.7916V8.75004C24.7916 4.72504 21.5249 1.45837 17.4999 1.45837C13.4749 1.45837 10.2083 4.72504 10.2083 8.75004V11.6667H8.74992C7.14575 11.6667 5.83325 12.9792 5.83325 14.5834V29.1667C5.83325 30.7709 7.14575 32.0834 8.74992 32.0834H26.2499C27.8541 32.0834 29.1666 30.7709 29.1666 29.1667V14.5834C29.1666 12.9792 27.8541 11.6667 26.2499 11.6667ZM13.1249 8.75004C13.1249 6.32921 15.0791 4.37504 17.4999 4.37504C19.9208 4.37504 21.8749 6.32921 21.8749 8.75004V11.6667H13.1249V8.75004ZM26.2499 29.1667H8.74992V14.5834H26.2499V29.1667ZM17.4999 24.7917C19.1041 24.7917 20.4166 23.4792 20.4166 21.875C20.4166 20.2709 19.1041 18.9584 17.4999 18.9584C15.8958 18.9584 14.5833 20.2709 14.5833 21.875C14.5833 23.4792 15.8958 24.7917 17.4999 24.7917Z" fill="#686868"/>
</g>
<defs>
<clipPath id="clip0_0_1058">
<rect width="35" height="35" fill="white"/>
</clipPath>
</defs>
</svg>
