<svg width="24" height="24" viewBox="0 0 24 24" fill="none" xmlns="http://www.w3.org/2000/svg">
<g id="Icons/Market icon V2">
<g id="Vector">
<path d="M6.998 16.7425H8.17906C8.24853 16.7425 8.29485 16.696 8.29485 16.6261V14.9725C8.29485 14.9026 8.24853 14.856 8.17906 14.856H6.998C6.92853 14.856 6.88222 14.9026 6.88222 14.9725V16.6028C6.85906 16.6727 6.92853 16.7425 6.998 16.7425Z" fill="#686868"/>
<path d="M9.0822 16.7429H10.2632C10.3327 16.7429 10.379 16.6963 10.379 16.6264V13.4823C10.379 13.4124 10.3327 13.3658 10.2632 13.3658H9.0822C9.01272 13.3658 8.96641 13.4124 8.96641 13.4823V16.6032C8.96641 16.673 9.01272 16.7429 9.0822 16.7429Z" fill="#686868"/>
<path d="M11.1895 16.7431H12.3705C12.44 16.7431 12.4863 16.6965 12.4863 16.6266V12.0385C12.4863 11.9686 12.44 11.922 12.3705 11.922H11.1895C11.12 11.922 11.0737 11.9686 11.0737 12.0385V16.6033C11.0737 16.6732 11.12 16.7431 11.1895 16.7431Z" fill="#686868"/>
<path d="M13.2968 16.7429H14.4778C14.5473 16.7429 14.5936 16.6963 14.5936 16.6264V10.571C14.5936 10.5011 14.5473 10.4545 14.4778 10.4545H13.2968C13.2273 10.4545 13.181 10.5011 13.181 10.571V16.6032C13.181 16.673 13.2273 16.7429 13.2968 16.7429Z" fill="#686868"/>
<path d="M15.404 16.7429H16.5851C16.6546 16.7429 16.7009 16.6963 16.7009 16.6264V13.4823C16.7009 13.4124 16.6546 13.3658 16.5851 13.3658H15.404C15.3346 13.3658 15.2883 13.4124 15.2883 13.4823V16.6032C15.2651 16.673 15.3346 16.7429 15.404 16.7429Z" fill="#686868"/>
<path d="M17.4882 16.7431H18.6693C18.7388 16.7431 18.7851 16.6965 18.7851 16.6266V12.0385C18.7851 11.9686 18.7388 11.922 18.6693 11.922H17.4882C17.4188 11.922 17.3724 11.9686 17.3724 12.0385V16.6033C17.3724 16.6732 17.4188 16.7431 17.4882 16.7431Z" fill="#686868"/>
<path d="M18.8548 17.8839H5.7243V10.8503C5.7243 10.5242 5.46956 10.268 5.14535 10.268C4.82114 10.268 4.56641 10.5242 4.56641 10.8503V18.4662C4.56641 18.7923 4.82114 19.0484 5.14535 19.0484H18.8548C19.179 19.0484 19.4338 18.7923 19.4338 18.4662C19.4338 18.1401 19.179 17.8839 18.8548 17.8839Z" fill="#686868"/>
<path d="M21.1705 2H2.82947C1.81053 2 1 2.81516 1 3.83993V20.539C1 21.5638 1.81053 22.3789 2.82947 22.3789H21.1705C22.1895 22.3789 23 21.5638 23 20.539V3.83993C23 2.81516 22.1895 2 21.1705 2ZM2.82947 3.21109H21.1705C21.5179 3.21109 21.7726 3.49057 21.7726 3.81664V6.89095H2.22737V3.83993C2.22737 3.49057 2.48211 3.21109 2.82947 3.21109ZM21.1705 21.1446H2.82947C2.48211 21.1446 2.22737 20.8651 2.22737 20.539V8.12533H21.7958V20.539C21.7726 20.8651 21.5179 21.1446 21.1705 21.1446Z" fill="#686868"/>
<path d="M4.12641 5.77302C4.52289 5.77302 4.8443 5.44977 4.8443 5.05102C4.8443 4.65227 4.52289 4.32902 4.12641 4.32902C3.72992 4.32902 3.40851 4.65227 3.40851 5.05102C3.40851 5.44977 3.72992 5.77302 4.12641 5.77302Z" fill="#686868"/>
<path d="M6.34947 5.77302C6.74596 5.77302 7.06737 5.44977 7.06737 5.05102C7.06737 4.65227 6.74596 4.32902 6.34947 4.32902C5.95299 4.32902 5.63158 4.65227 5.63158 5.05102C5.63158 5.44977 5.95299 5.77302 6.34947 5.77302Z" fill="#686868"/>
<path d="M8.57254 5.77302C8.96902 5.77302 9.29044 5.44977 9.29044 5.05102C9.29044 4.65227 8.96902 4.32902 8.57254 4.32902C8.17606 4.32902 7.85465 4.65227 7.85465 5.05102C7.85465 5.44977 8.17606 5.77302 8.57254 5.77302Z" fill="#686868"/>
</g>
</g>
</svg>
