<svg width="24" height="24" viewBox="0 0 24 24" fill="none" xmlns="http://www.w3.org/2000/svg">
<g id="Icons/Master Trade Icon">
<g id="Vector">
<path d="M5.60932 16.9677V15.9032C5.74213 15.8964 5.8743 15.9258 5.9917 15.9883C6.10911 16.0508 6.20734 16.144 6.2759 16.2581C6.30684 16.3117 6.35126 16.3563 6.40476 16.3874C6.45825 16.4185 6.51895 16.4351 6.58083 16.4355C6.64138 16.4362 6.70112 16.4214 6.75433 16.3925C6.80755 16.3636 6.85247 16.3215 6.88482 16.2702C6.91718 16.219 6.93588 16.1603 6.93914 16.0998C6.94241 16.0393 6.93013 15.9789 6.90348 15.9245C6.774 15.6969 6.58526 15.5087 6.35736 15.38C6.12946 15.2513 5.87093 15.1868 5.60932 15.1935V14.8387C5.60932 14.7446 5.57197 14.6543 5.50547 14.5878C5.43898 14.5213 5.3488 14.4839 5.25476 14.4839C5.16072 14.4839 5.07054 14.5213 5.00405 14.5878C4.93755 14.6543 4.9002 14.7446 4.9002 14.8387V15.1935C4.54805 15.1721 4.20164 15.2904 3.93613 15.5229C3.67062 15.7554 3.50742 16.0833 3.48194 16.4355C3.50742 16.7876 3.67062 17.1155 3.93613 17.348C4.20164 17.5805 4.54805 17.6989 4.9002 17.6774V18.7419C4.76739 18.7488 4.63522 18.7194 4.51782 18.6569C4.40041 18.5944 4.30218 18.5011 4.23362 18.3871C4.20268 18.3335 4.15826 18.2889 4.10476 18.2577C4.05127 18.2266 3.99057 18.2101 3.92869 18.2097C3.86814 18.2089 3.8084 18.2238 3.75519 18.2527C3.70197 18.2816 3.65705 18.3237 3.6247 18.3749C3.59234 18.4262 3.57364 18.4848 3.57038 18.5454C3.56711 18.6059 3.57939 18.6662 3.60604 18.7206C3.73552 18.9482 3.92426 19.1364 4.15216 19.2651C4.38006 19.3939 4.63859 19.4583 4.9002 19.4516V19.8065C4.9002 19.9006 4.93755 19.9908 5.00405 20.0574C5.07054 20.1239 5.16072 20.1613 5.25476 20.1613C5.3488 20.1613 5.43898 20.1239 5.50547 20.0574C5.57197 19.9908 5.60932 19.9006 5.60932 19.8065V19.4516C5.96147 19.4731 6.30788 19.3547 6.57339 19.1222C6.8389 18.8897 7.0021 18.5618 7.02758 18.2097C7.0021 17.8575 6.8389 17.5296 6.57339 17.2971C6.30788 17.0646 5.96147 16.9463 5.60932 16.9677ZM4.9002 16.9677C4.51727 16.9677 4.19107 16.7229 4.19107 16.4355C4.19107 16.1481 4.51727 15.9032 4.9002 15.9032V16.9677ZM5.60932 18.7419V17.6774C5.99225 17.6774 6.31845 17.9223 6.31845 18.2097C6.31845 18.4971 5.99225 18.7419 5.60932 18.7419Z" fill="#686868"/>
<path d="M21.2101 22.2903H3.48194C3.28612 22.2903 3.12738 22.4492 3.12738 22.6452C3.12738 22.8411 3.28612 23 3.48194 23H21.2101C21.4059 23 21.5647 22.8411 21.5647 22.6452C21.5647 22.4492 21.4059 22.2903 21.2101 22.2903Z" fill="#686868"/>
<path d="M11.2823 15.9032C11.2823 15.7073 11.1236 15.5484 10.9278 15.5484C10.732 15.5484 10.5732 15.7073 10.5732 15.9032V21.2258C10.5732 21.4218 10.732 21.5806 10.9278 21.5806C11.1236 21.5806 11.2823 21.4218 11.2823 21.2258V15.9032Z" fill="#686868"/>
<path d="M14.1188 18.0323C14.1188 17.8363 13.9601 17.6774 13.7643 17.6774C13.5685 17.6774 13.4097 17.8363 13.4097 18.0323V21.2258C13.4097 21.4218 13.5685 21.5806 13.7643 21.5806C13.9601 21.5806 14.1188 21.4218 14.1188 21.2258V18.0323Z" fill="#686868"/>
<path d="M16.9553 18.0323C16.9553 17.8363 16.7966 17.6774 16.6008 17.6774C16.405 17.6774 16.2462 17.8363 16.2462 18.0323V21.2258C16.2462 21.4218 16.405 21.5806 16.6008 21.5806C16.7966 21.5806 16.9553 21.4218 16.9553 21.2258V18.0323Z" fill="#686868"/>
<path d="M19.7919 15.5484C19.7919 15.3524 19.6331 15.1935 19.4373 15.1935C19.2415 15.1935 19.0827 15.3524 19.0827 15.5484V21.2258C19.0827 21.4218 19.2415 21.5806 19.4373 21.5806C19.6331 21.5806 19.7919 21.4218 19.7919 21.2258V15.5484Z" fill="#686868"/>
<path d="M22.5965 10.5802L19.1182 10.9031C19.0554 10.9092 18.9953 10.932 18.9442 10.9691C18.8931 11.0062 18.8529 11.0562 18.8276 11.1141C18.8023 11.172 18.7929 11.2355 18.8003 11.2983C18.8078 11.361 18.8318 11.4206 18.87 11.4709L19.8415 12.7377L15.1825 16.5167L14.1898 15.7751L13.9416 12.3757C13.9349 12.3025 13.9511 12.2291 13.988 12.1655C14.0248 12.102 14.0804 12.0514 14.1472 12.0209L18.402 9.89184C18.6714 9.76017 18.8836 9.53485 18.9991 9.25797C19.1146 8.98109 19.1254 8.6716 19.0295 8.38733C18.9693 8.22726 18.8781 8.08068 18.7611 7.95599C18.6442 7.8313 18.5037 7.73096 18.3479 7.66073C18.1921 7.5905 18.0239 7.55177 17.8531 7.54676C17.6823 7.54175 17.5121 7.57055 17.3525 7.63152L14.7571 8.63217C13.6811 9.04578 12.5493 9.29576 11.3993 9.37378C12.052 9.17863 12.6128 8.75494 12.979 8.18013C13.3453 7.60532 13.4926 6.91781 13.3941 6.24325C13.2955 5.56869 12.9577 4.95214 12.4424 4.50631C11.927 4.06048 11.2686 3.81515 10.5874 3.81515C9.9062 3.81515 9.24775 4.06048 8.73241 4.50631C8.21706 4.95214 7.87925 5.56869 7.78072 6.24325C7.68219 6.91781 7.82951 7.60532 8.19577 8.18013C8.56203 8.75494 9.12275 9.17863 9.77545 9.37378C8.62554 9.29539 7.49379 9.04542 6.41773 8.63217L3.80815 7.65281C3.64363 7.58997 3.4682 7.56074 3.29222 7.56683C3.11623 7.57293 2.94324 7.61423 2.78346 7.6883C2.63357 7.75683 2.49911 7.85504 2.3882 7.97702C2.27729 8.09899 2.19223 8.24219 2.13815 8.39797C2.08811 8.52815 2.06285 8.66656 2.06369 8.80604C2.06446 9.03805 2.13166 9.26497 2.25734 9.45993C2.38303 9.65489 2.56192 9.80971 2.77282 9.90604L7.02758 12.0351C7.09369 12.0662 7.14858 12.117 7.18476 12.1805C7.22093 12.244 7.23662 12.3171 7.22968 12.3899L7.14813 13.5112C6.31945 13.0991 5.37912 12.9686 4.46966 13.1395C3.5602 13.3104 2.7312 13.7733 2.10831 14.4582C1.48542 15.143 1.1026 16.0124 1.01788 16.9346C0.933153 17.8567 1.15115 18.7814 1.63881 19.5685C2.12648 20.3555 2.85723 20.962 3.72031 21.2959C4.58339 21.6299 5.53173 21.6732 6.42161 21.4192C7.31148 21.1653 8.09436 20.6279 8.65159 19.8886C9.20882 19.1492 9.51001 18.2482 9.50952 17.3222C9.51024 16.9036 9.44809 16.4874 9.32515 16.0873L10.9739 14.2528L14.9698 17.2512C15.0312 17.2973 15.1058 17.3222 15.1825 17.3222C15.2637 17.3225 15.3426 17.295 15.4059 17.2441L20.2741 13.2983L21.2456 14.5686C21.279 14.612 21.322 14.6471 21.3712 14.6711C21.4204 14.6951 21.4745 14.7074 21.5292 14.707H21.5895C21.6532 14.6959 21.7126 14.6675 21.7614 14.6249C21.8101 14.5824 21.8463 14.5274 21.8661 14.4657L22.9829 11.0451C23.0009 10.9894 23.0047 10.9301 22.9942 10.8725C22.9837 10.8149 22.9591 10.7608 22.9227 10.7151C22.8848 10.666 22.8347 10.6278 22.7775 10.6041C22.7203 10.5805 22.6579 10.5722 22.5965 10.5802ZM8.44583 6.67701C8.44583 6.25592 8.5706 5.8443 8.80436 5.49418C9.03812 5.14406 9.37037 4.87118 9.7591 4.71004C10.1478 4.54889 10.5756 4.50673 10.9882 4.58888C11.4009 4.67103 11.78 4.8738 12.0775 5.17155C12.375 5.4693 12.5776 5.84866 12.6597 6.26165C12.7418 6.67464 12.6997 7.10272 12.5387 7.49175C12.3776 7.88078 12.105 8.21329 11.7551 8.44723C11.4053 8.68117 10.994 8.80604 10.5732 8.80604C10.009 8.80604 9.46789 8.58173 9.06893 8.18246C8.66997 7.78319 8.44583 7.24166 8.44583 6.67701ZM5.25476 20.8706C4.5535 20.8706 3.86799 20.6624 3.28492 20.2725C2.70184 19.8826 2.24739 19.3285 1.97903 18.6801C1.71067 18.0317 1.64045 17.3182 1.77726 16.6299C1.91407 15.9416 2.25176 15.3093 2.74762 14.8131C3.24349 14.3168 3.87526 13.9789 4.56305 13.842C5.25083 13.705 5.96374 13.7753 6.61162 14.0439C7.2595 14.3125 7.81325 14.7673 8.20285 15.3508C8.59245 15.9343 8.8004 16.6204 8.8004 17.3222C8.8004 17.7881 8.70869 18.2496 8.5305 18.6801C8.35232 19.1106 8.09115 19.5018 7.76191 19.8313C7.43266 20.1608 7.04179 20.4221 6.61162 20.6004C6.18144 20.7788 5.72038 20.8706 5.25476 20.8706ZM13.2253 12.4325L13.431 15.2109L11.1405 13.4899C11.0698 13.437 10.9819 13.4124 10.894 13.421C10.8062 13.4295 10.7246 13.4705 10.6654 13.536L9.02732 15.3599C8.73153 14.8028 8.31621 14.3181 7.81117 13.9406L7.92108 12.4502C7.93642 12.2387 7.88824 12.0273 7.78274 11.8434C7.67724 11.6594 7.51922 11.5111 7.32896 11.4177L3.0742 9.28862C2.9821 9.24677 2.90438 9.17866 2.85077 9.09282C2.79717 9.00698 2.77005 8.90723 2.77282 8.80604C2.77137 8.74765 2.78224 8.68961 2.80473 8.63571C2.82825 8.56804 2.86519 8.50581 2.91332 8.45277C2.96145 8.39972 3.01979 8.35694 3.08484 8.32701C3.23236 8.25937 3.40065 8.25299 3.55286 8.30926L6.14826 9.30991C9.00071 10.4101 12.1599 10.4101 15.0123 9.30991L17.6042 8.31281C17.6749 8.28401 17.7507 8.26952 17.827 8.27018C17.9034 8.27084 17.9789 8.28664 18.0491 8.31666C18.1193 8.34669 18.1829 8.39034 18.2362 8.44511C18.2894 8.49987 18.3313 8.56465 18.3594 8.63571C18.4002 8.75715 18.395 8.88937 18.3446 9.00717C18.2943 9.12497 18.2024 9.2201 18.0864 9.27442L13.8317 11.4035C13.6393 11.4946 13.4788 11.6414 13.3707 11.8248C13.2626 12.0083 13.212 12.22 13.2253 12.4325ZM21.398 13.5999L19.8238 11.5489L22.1249 11.336L21.398 13.5999Z" fill="#686868"/>
<path d="M3.83651 5.96774C4.15207 5.96774 4.46055 5.87409 4.72294 5.69864C4.98532 5.52318 5.18983 5.2738 5.31059 4.98203C5.43135 4.69025 5.46295 4.3692 5.40138 4.05945C5.33982 3.74971 5.18786 3.46519 4.96472 3.24188C4.74158 3.01857 4.45728 2.86649 4.14778 2.80488C3.83828 2.74326 3.51747 2.77489 3.22592 2.89574C2.93438 3.0166 2.68519 3.22126 2.50987 3.48385C2.33455 3.74644 2.24097 4.05516 2.24097 4.37097C2.24191 4.79417 2.41031 5.19977 2.70933 5.49902C3.00835 5.79827 3.41363 5.9668 3.83651 5.96774ZM3.83651 3.48387C4.01182 3.48387 4.1832 3.5359 4.32897 3.63337C4.47474 3.73085 4.58835 3.8694 4.65544 4.03149C4.72253 4.19359 4.74009 4.37195 4.70588 4.54403C4.67168 4.71611 4.58726 4.87418 4.46329 4.99824C4.33933 5.1223 4.18138 5.20679 4.00944 5.24102C3.83749 5.27525 3.65926 5.25768 3.49729 5.19054C3.33532 5.1234 3.19688 5.0097 3.09949 4.86381C3.00209 4.71793 2.9501 4.54642 2.9501 4.37097C2.9501 4.1357 3.04349 3.91006 3.20972 3.7437C3.37596 3.57733 3.60142 3.48387 3.83651 3.48387Z" fill="#686868"/>
<path d="M20.8555 7.74194C20.8555 7.54596 20.6968 7.3871 20.501 7.3871C20.3052 7.3871 20.1464 7.54596 20.1464 7.74194C20.1464 7.93791 20.3052 8.09677 20.501 8.09677C20.6968 8.09677 20.8555 7.93791 20.8555 7.74194Z" fill="#686868"/>
<path d="M11.6369 1H11.2823C11.0865 1 10.9278 1.15887 10.9278 1.35484C10.9278 1.55081 11.0865 1.70968 11.2823 1.70968H11.6369C11.8327 1.70968 11.9915 1.55081 11.9915 1.35484C11.9915 1.15887 11.8327 1 11.6369 1Z" fill="#686868"/>
<path d="M16.2462 5.96774C16.2462 5.77177 16.0875 5.6129 15.8917 5.6129C15.6958 5.6129 15.5371 5.77177 15.5371 5.96774C15.5371 6.16371 15.6958 6.32258 15.8917 6.32258C16.0875 6.32258 16.2462 6.16371 16.2462 5.96774Z" fill="#686868"/>
<path d="M20.8553 2.38783C20.8389 2.32692 20.8066 2.27148 20.7618 2.22719C20.7169 2.18291 20.6611 2.1514 20.6 2.1359L16.5757 1.1317C16.5135 1.11376 16.4475 1.1132 16.385 1.13008C16.3225 1.14697 16.2658 1.18067 16.2211 1.22751C16.1786 1.27061 16.1478 1.32389 16.1316 1.38228C16.1155 1.44066 16.1146 1.50221 16.1289 1.56106L17.1465 5.57783C17.162 5.63896 17.1935 5.69486 17.2377 5.73977C17.282 5.78467 17.3374 5.81696 17.3983 5.83332C17.4288 5.83822 17.4599 5.83822 17.4904 5.83332C17.5374 5.83312 17.5838 5.82361 17.627 5.80534C17.6702 5.78707 17.7094 5.76039 17.7422 5.72687L20.7524 2.71783C20.7963 2.67616 20.8287 2.62397 20.8467 2.56621C20.8647 2.50845 20.8676 2.44705 20.8553 2.38783ZM17.6996 4.79719L16.9905 1.95848L19.827 2.66816L17.6996 4.79719Z" fill="#686868"/>
</g>
</g>
</svg>
