<svg width="32" height="32" viewBox="0 0 32 32" fill="none" xmlns="http://www.w3.org/2000/svg">
<g id="Icons/Notification icon">
<path id="Vector" d="M20.3607 26.4046C20.2295 28.7803 18.2449 30.6667 15.8159 30.6667C13.3869 30.6667 11.4023 28.7803 11.2711 26.4046H4.18503C3.34551 26.4046 2.6665 25.7331 2.6665 24.9018V23.3961C2.6665 21.736 4.02629 20.3875 5.70204 20.3875C5.70007 20.3875 5.70099 14.37 5.70099 14.37C5.70099 10.1317 8.37429 6.41567 12.2757 4.9731V4.84097C12.2757 2.90436 13.863 1.33337 15.8159 1.33337C17.771 1.33337 19.3562 2.90341 19.3562 4.84097V4.97319C23.2575 6.41594 25.9309 10.1326 25.9309 14.37V20.3866C27.6031 20.3875 28.9654 21.7355 28.9654 23.3961V24.9018C28.9654 25.7298 28.2841 26.4046 27.4468 26.4046H20.3607ZM18.3322 26.4046H13.2997C13.4266 27.6715 14.5047 28.661 15.8159 28.661C17.1272 28.661 18.2053 27.6715 18.3322 26.4046ZM26.9424 24.3989V23.3961C26.9424 22.8441 26.4867 22.3932 25.9298 22.3932C24.812 22.3932 23.9079 21.4972 23.9079 20.3866V14.37C23.9079 10.7722 21.4984 7.64316 18.0643 6.66097L17.3332 6.45186V4.84097C17.3332 4.01158 16.6542 3.33907 15.8159 3.33907C14.9795 3.33907 14.2987 4.01285 14.2987 4.84097V6.45184L13.5675 6.66093C10.1332 7.64301 7.72398 10.7713 7.72398 14.37V20.3866C7.72398 21.494 6.81762 22.3932 5.70204 22.3932C5.14367 22.3932 4.68949 22.8436 4.68949 23.3961V24.3989H26.9424Z" fill="#2E7DF6"/>
</g>
</svg>
