<svg width="10" height="10" viewBox="0 0 10 10" fill="none" xmlns="http://www.w3.org/2000/svg">
<g id="Person add alt 2" clip-path="url(#clip0_110_139)">
<g id="Group">
<path id="Vector" d="M5.4165 3.33329C5.4165 2.41246 4.67067 1.66663 3.74984 1.66663C2.829 1.66663 2.08317 2.41246 2.08317 3.33329C2.08317 4.25413 2.829 4.99996 3.74984 4.99996C4.67067 4.99996 5.4165 4.25413 5.4165 3.33329ZM6.24984 4.16663V4.99996H7.49984V6.24996H8.33317V4.99996H9.58317V4.16663H8.33317V2.91663H7.49984V4.16663H6.24984ZM0.416504 7.49996V8.33329H7.08317V7.49996C7.08317 6.39163 4.86234 5.83329 3.74984 5.83329C2.63734 5.83329 0.416504 6.39163 0.416504 7.49996Z" fill="white"/>
</g>
</g>
<defs>
<clipPath id="clip0_110_139">
<rect width="10" height="10" fill="white"/>
</clipPath>
</defs>
</svg>
