<svg width="24" height="24" viewBox="0 0 24 24" fill="none" xmlns="http://www.w3.org/2000/svg">
<g id="Icons/Refer icon V2">
<g id="Vector">
<path d="M1.5906 4C1.26577 4 1 4.265 1 4.58889V9.06445C1 9.38833 1.26577 9.65333 1.5906 9.65333C2.77181 9.65333 3.71678 10.5956 3.71678 11.7733C3.71678 12.9511 2.77181 13.8933 1.5906 13.8933C1.26577 13.8933 1 14.1583 1 14.4822V18.9578C1 19.2817 1.26577 19.5467 1.5906 19.5467H22.4094C22.7342 19.5467 23 19.2817 23 18.9578V14.4233C23 14.2761 22.9409 14.0994 22.8228 14.0111C22.7047 13.8933 22.557 13.8344 22.3799 13.8639H22.3208C22.2913 13.8639 22.2913 13.8639 22.2617 13.8639C21.0805 13.8639 20.1356 12.9217 20.1356 11.7439C20.1356 10.5661 21.0805 9.62389 22.2617 9.62389C22.2913 9.62389 22.2913 9.62389 22.3208 9.62389H22.3799C22.557 9.62389 22.7047 9.565 22.8228 9.47667C22.9409 9.35889 23 9.21167 23 9.06445V4.58889C23 4.265 22.7342 4 22.4094 4H1.5906ZM21.8483 8.47556C20.2537 8.71111 19.0134 10.0656 19.0134 11.7439C19.0134 13.3928 20.2537 14.7767 21.8483 15.0122V18.3394H17.0644V17.8978C17.0644 17.5739 16.7987 17.3089 16.4738 17.3089C16.149 17.3089 15.8832 17.5739 15.8832 17.8978V18.3394H2.18121V14.9828C3.71678 14.7178 4.89799 13.3633 4.89799 11.7439C4.89799 10.1244 3.71678 8.79944 2.18121 8.505V5.17778H15.8537V5.61944C15.8537 5.94333 16.1195 6.20833 16.4443 6.20833C16.7691 6.20833 17.0349 5.94333 17.0349 5.61944V5.17778H21.8188V8.47556H21.8483Z" fill="#686868"/>
<path d="M16.4738 12.5389C16.149 12.5389 15.8832 12.8039 15.8832 13.1278V15.0711C15.8832 15.395 16.149 15.66 16.4738 15.66C16.7986 15.66 17.0644 15.395 17.0644 15.0711V13.1278C17.0644 12.8039 16.7986 12.5389 16.4738 12.5389Z" fill="#686868"/>
<path d="M16.4738 7.79834C16.149 7.79834 15.8832 8.06334 15.8832 8.38723V10.3306C15.8832 10.6545 16.149 10.9195 16.4738 10.9195C16.7986 10.9195 17.0644 10.6545 17.0644 10.3306V8.38723C17.0644 8.06334 16.7986 7.79834 16.4738 7.79834Z" fill="#686868"/>
<path d="M11.3651 10.1244L10.1248 7.56277L8.85503 10.1244L6.02013 10.5367L8.05772 12.5094L7.58523 15.3361L10.1248 14.0111L12.6349 15.3361L12.1624 12.5094L14.2 10.5367L11.3651 10.1244Z" fill="#686868"/>
</g>
</g>
</svg>
