<svg width="24" height="24" viewBox="0 0 24 24" fill="none" xmlns="http://www.w3.org/2000/svg">
<g id="Next Icon">
<path id="Vector" d="M9.32846 6.70566C9.22991 6.7968 9.15173 6.90506 9.09838 7.02423C9.04504 7.14341 9.01758 7.27117 9.01758 7.40019C9.01758 7.52922 9.04504 7.65697 9.09838 7.77615C9.15173 7.89533 9.22991 8.00359 9.32846 8.09473L13.4531 11.9171L9.32846 15.7395C9.12969 15.9237 9.01803 16.1735 9.01803 16.434C9.01803 16.6945 9.12969 16.9444 9.32846 17.1286C9.52722 17.3128 9.79681 17.4163 10.0779 17.4163C10.359 17.4163 10.6286 17.3128 10.8273 17.1286L15.7067 12.6067C15.8052 12.5156 15.8834 12.4073 15.9368 12.2882C15.9901 12.169 16.0176 12.0412 16.0176 11.9122C16.0176 11.7832 15.9901 11.6554 15.9368 11.5362C15.8834 11.4171 15.8052 11.3088 15.7067 11.2177L10.8273 6.69581C10.4234 6.32145 9.74304 6.32145 9.32846 6.70566Z" fill="#2E7DF6"/>
</g>
</svg>
