<svg width="24" height="24" viewBox="0 0 24 24" fill="none" xmlns="http://www.w3.org/2000/svg">
<g id="Icons/ Subscribe icon V2">
<path id="Subscription" d="M4.19412 4.5917C4.19412 4.41627 4.26092 4.24803 4.37982 4.12398C4.49872 3.99994 4.65998 3.93025 4.82813 3.93025H12.4793C12.6475 3.93025 12.8087 3.99994 12.9276 4.12398C13.0465 4.24803 13.1133 4.41627 13.1133 4.5917C13.1133 4.76713 13.0465 4.93537 12.9276 5.05942C12.8087 5.18347 12.6475 5.25316 12.4793 5.25316H4.82813C4.65998 5.25316 4.49872 5.18347 4.37982 5.05942C4.26092 4.93537 4.19412 4.76713 4.19412 4.5917ZM15.7635 6.8896H13.1412C12.9731 6.8896 12.8118 6.95929 12.6929 7.08333C12.574 7.20738 12.5072 7.37562 12.5072 7.55105C12.5072 7.72648 12.574 7.89473 12.6929 8.01877C12.8118 8.14282 12.9731 8.21251 13.1412 8.21251H15.7584C15.9265 8.21251 16.0878 8.14282 16.2067 8.01877C16.3256 7.89473 16.3924 7.72648 16.3924 7.55105C16.3924 7.37562 16.3256 7.20738 16.2067 7.08333C16.0878 6.95929 15.9265 6.8896 15.7584 6.8896H15.7635ZM15.7635 9.8463H13.1412C12.9731 9.8463 12.8118 9.91599 12.6929 10.04C12.574 10.1641 12.5072 10.3323 12.5072 10.5078C12.5072 10.6832 12.574 10.8514 12.6929 10.9755C12.8118 11.0995 12.9731 11.1692 13.1412 11.1692H15.7584C15.9265 11.1692 16.0878 11.0995 16.2067 10.9755C16.3256 10.8514 16.3924 10.6832 16.3924 10.5078C16.3924 10.3323 16.3256 10.1641 16.2067 10.04C16.0878 9.91599 15.9265 9.8463 15.7584 9.8463H15.7635ZM15.7635 12.803H13.1412C12.9731 12.803 12.8118 12.8727 12.6929 12.9967C12.574 13.1208 12.5072 13.289 12.5072 13.4645C12.5072 13.6399 12.574 13.8081 12.6929 13.9322C12.8118 14.0562 12.9731 14.1259 13.1412 14.1259H15.7584C15.9265 14.1259 16.0878 14.0562 16.2067 13.9322C16.3256 13.8081 16.3924 13.6399 16.3924 13.4645C16.3924 13.289 16.3256 13.1208 16.2067 12.9967C16.0878 12.8727 15.9265 12.803 15.7584 12.803H15.7635ZM15.7635 15.761H4.82813C4.65998 15.761 4.49872 15.8307 4.37982 15.9548C4.26092 16.0788 4.19412 16.2471 4.19412 16.4225C4.19412 16.5979 4.26092 16.7662 4.37982 16.8902C4.49872 17.0143 4.65998 17.0839 4.82813 17.0839H15.7635C15.9316 17.0839 16.0929 17.0143 16.2118 16.8902C16.3307 16.7662 16.3975 16.5979 16.3975 16.4225C16.3975 16.2471 16.3307 16.0788 16.2118 15.9548C16.0929 15.8307 15.9316 15.761 15.7635 15.761ZM15.7635 18.7191H4.82813C4.65998 18.7191 4.49872 18.7887 4.37982 18.9128C4.26092 19.0368 4.19412 19.2051 4.19412 19.3805C4.19412 19.5559 4.26092 19.7242 4.37982 19.8482C4.49872 19.9723 4.65998 20.042 4.82813 20.042H15.7635C15.9316 20.042 16.0929 19.9723 16.2118 19.8482C16.3307 19.7242 16.3975 19.5559 16.3975 19.3805C16.3975 19.2051 16.3307 19.0368 16.2118 18.9128C16.0929 18.7887 15.9316 18.7191 15.7635 18.7191ZM4.19412 13.4658V7.55237C4.19412 7.37695 4.26092 7.2087 4.37982 7.08466C4.49872 6.96061 4.65998 6.89092 4.82813 6.89092H10.4961C10.6643 6.89092 10.8256 6.96061 10.9444 7.08466C11.0633 7.2087 11.1301 7.37695 11.1301 7.55237V13.4658C11.1301 13.6412 11.0633 13.8095 10.9444 13.9335C10.8256 14.0576 10.6643 14.1272 10.4961 14.1272H4.82813C4.65998 14.1272 4.49872 14.0576 4.37982 13.9335C4.26092 13.8095 4.19412 13.6412 4.19412 13.4658ZM5.46213 12.8043H9.86213V8.21383H5.46213V12.8043ZM23 4.53879V20.5606C22.9993 21.2075 22.7526 21.8278 22.314 22.2852C21.8753 22.7426 21.2807 22.9996 20.6605 23H3.33948C2.71934 22.9996 2.12467 22.7426 1.68604 22.2852C1.24741 21.8278 1.00067 21.2075 1 20.5606V2.98437C1 2.45808 1.20039 1.95335 1.55709 1.58121C1.91379 1.20907 2.39757 1 2.90202 1H15.1903C15.2739 0.999861 15.3566 1.01695 15.4338 1.05027C15.5105 1.0842 15.5802 1.13315 15.6392 1.19447L16.9452 2.55442H21.1043C21.6077 2.55617 22.0898 2.76601 22.4452 3.13796C22.8005 3.50991 23 4.01364 23 4.53879ZM16.206 3.66567L15.8256 3.26879V4.28743C15.8256 4.46286 15.8924 4.63111 16.0113 4.75515C16.1302 4.8792 16.2915 4.94889 16.4596 4.94889H17.4296L16.2466 3.71064C16.2314 3.6908 16.2187 3.67625 16.206 3.66567ZM18.581 21.6771C18.4102 21.3319 18.321 20.949 18.321 20.5606V6.26518H16.4583C15.9539 6.26518 15.4701 6.05612 15.1134 5.68398C14.7567 5.31184 14.5563 4.80711 14.5563 4.28082V2.32291H2.90202C2.73387 2.32291 2.57261 2.3926 2.45371 2.51665C2.33481 2.64069 2.26801 2.80894 2.26801 2.98437V20.5606C2.26835 20.8568 2.38138 21.1408 2.58229 21.3501C2.78319 21.5595 3.05553 21.6771 3.33948 21.6771H18.581ZM21.732 4.53879C21.732 4.36336 21.6652 4.19511 21.5463 4.07107C21.4274 3.94702 21.2661 3.87733 21.098 3.87733H18.2031L19.4027 5.13542L19.4115 5.14997C19.5247 5.27029 19.5876 5.43249 19.5865 5.60108V20.5606C19.5865 20.857 19.6994 21.1414 19.9003 21.351C20.1013 21.5606 20.3738 21.6784 20.658 21.6784C20.9422 21.6784 21.2147 21.5606 21.4156 21.351C21.6166 21.1414 21.7295 20.857 21.7295 20.5606L21.732 4.53879Z" fill="#686868"/>
</g>
</svg>
