<svg width="24" height="24" viewBox="0 0 24 24" fill="none" xmlns="http://www.w3.org/2000/svg">
<g id="Icons/Wallet icon V2">
<g id="Vector">
<path d="M21.5 19C21.3674 19 21.2402 19.0527 21.1464 19.1464C21.0527 19.2402 21 19.3674 21 19.5V21H2V10H21V11.5C21 11.6326 21.0527 11.7598 21.1464 11.8536C21.2402 11.9473 21.3674 12 21.5 12C21.6326 12 21.7598 11.9473 21.8536 11.8536C21.9473 11.7598 22 11.6326 22 11.5V10C22 9.73478 21.8946 9.48043 21.7071 9.29289C21.5196 9.10536 21.2652 9 21 9V7.5C21 7.23478 20.8946 6.98043 20.7071 6.79289C20.5196 6.60536 20.2652 6.5 20 6.5H17.5V2.5C17.5 2.36739 17.4473 2.24021 17.3536 2.14645C17.2598 2.05268 17.1326 2 17 2H6C5.86739 2 5.74021 2.05268 5.64645 2.14645C5.55268 2.24021 5.5 2.36739 5.5 2.5V6.5H3C2.46957 6.5 1.96086 6.71071 1.58579 7.08579C1.21071 7.46086 1 7.96957 1 8.5V21C1 21.2652 1.10536 21.5196 1.29289 21.7071C1.48043 21.8946 1.73478 22 2 22H21C21.2652 22 21.5196 21.8946 21.7071 21.7071C21.8946 21.5196 22 21.2652 22 21V19.5C22 19.3674 21.9473 19.2402 21.8536 19.1464C21.7598 19.0527 21.6326 19 21.5 19ZM6.5 8.621C7.15779 8.51568 7.76567 8.20575 8.23726 7.73523C8.70886 7.26472 9.02018 6.65755 9.127 6H13.873C13.9798 6.65755 14.2911 7.26472 14.7627 7.73523C15.2343 8.20575 15.8422 8.51568 16.5 8.621V9H6.5V8.621ZM13.8335 5H9.1665V3H13.8335V5ZM20 7.5V9H17.5V7.5H20ZM16.5 7.603C16.0264 7.49057 15.6044 7.22197 15.3021 6.84046C14.9998 6.45895 14.8347 5.98677 14.8335 5.5V3H16.5V7.603ZM6.5 3H8.1665V5.5C8.16528 5.98677 8.00022 6.45895 7.6979 6.84046C7.39557 7.22197 6.97361 7.49057 6.5 7.603V3ZM3 7.5H5.5V9H2V8.5C2 8.23478 2.10536 7.98043 2.29289 7.79289C2.48043 7.60536 2.73478 7.5 3 7.5Z" fill="#686868"/>
<path d="M20 11.5C20 11.3674 19.9473 11.2402 19.8536 11.1464C19.7598 11.0527 19.6326 11 19.5 11H3.5C3.36739 11 3.24021 11.0527 3.14645 11.1464C3.05268 11.2402 3 11.3674 3 11.5V15.5C3 15.6326 3.05268 15.7598 3.14645 15.8536C3.24021 15.9473 3.36739 16 3.5 16C3.63261 16 3.75979 15.9473 3.85355 15.8536C3.94732 15.7598 4 15.6326 4 15.5V12H19.5C19.6326 12 19.7598 11.9473 19.8536 11.8536C19.9473 11.7598 20 11.6326 20 11.5Z" fill="#686868"/>
<path d="M9.52551 20H19.5C19.6326 20 19.7598 19.9473 19.8536 19.8536C19.9473 19.7598 20 19.6326 20 19.5C20 19.3674 19.9473 19.2402 19.8536 19.1464C19.7598 19.0527 19.6326 19 19.5 19H9.52551C9.3929 19 9.26573 19.0527 9.17196 19.1464C9.07819 19.2402 9.02551 19.3674 9.02551 19.5C9.02551 19.6326 9.07819 19.7598 9.17196 19.8536C9.26573 19.9473 9.3929 20 9.52551 20Z" fill="#686868"/>
<path d="M4.5 17C4.10218 17 3.72064 17.158 3.43934 17.4393C3.15804 17.7206 3 18.1022 3 18.5C3 18.8978 3.15804 19.2794 3.43934 19.5607C3.72064 19.842 4.10218 20 4.5 20H6.5C6.89782 20 7.27936 19.842 7.56066 19.5607C7.84196 19.2794 8 18.8978 8 18.5C8 18.1022 7.84196 17.7206 7.56066 17.4393C7.27936 17.158 6.89782 17 6.5 17H4.5ZM7 18.5C7 18.6326 6.94732 18.7598 6.85355 18.8536C6.75979 18.9473 6.63261 19 6.5 19H4.5C4.36739 19 4.24021 18.9473 4.14645 18.8536C4.05268 18.7598 4 18.6326 4 18.5C4 18.3674 4.05268 18.2402 4.14645 18.1464C4.24021 18.0527 4.36739 18 4.5 18H6.5C6.63261 18 6.75979 18.0527 6.85355 18.1464C6.94732 18.2402 7 18.3674 7 18.5Z" fill="#686868"/>
<path d="M22.35 13H20.5C19.837 13 19.2011 13.2634 18.7322 13.7322C18.2634 14.2011 18 14.837 18 15.5C18 16.163 18.2634 16.7989 18.7322 17.2678C19.2011 17.7366 19.837 18 20.5 18H22.35C22.5224 18 22.6877 17.9315 22.8096 17.8096C22.9315 17.6877 23 17.5224 23 17.35V13.65C23 13.4776 22.9315 13.3123 22.8096 13.1904C22.6877 13.0685 22.5224 13 22.35 13ZM22 17H20.5C20.1022 17 19.7206 16.842 19.4393 16.5607C19.158 16.2794 19 15.8978 19 15.5C19 15.1022 19.158 14.7206 19.4393 14.4393C19.7206 14.158 20.1022 14 20.5 14H22V17Z" fill="#686868"/>
</g>
</g>
</svg>
